<svg width="64" height="49" viewBox="0 0 64 49" fill="none" xmlns="http://www.w3.org/2000/svg">
<rect x="1" y="1.75" width="62" height="46" rx="7" fill="white"/>
<g clip-path="url(#clip0_927_7916)">
<path d="M13.9252 24.0367C13.8718 24.0681 13.7871 24.0649 13.7353 24.0336L13.4261 23.8502C13.401 23.8345 13.3775 23.8094 13.3602 23.7796C13.3586 23.778 13.3586 23.7765 13.3571 23.7749C13.3367 23.7435 13.3257 23.7091 13.3257 23.6777L13.3178 23.3187C13.3163 23.2575 13.3555 23.1839 13.4088 23.1525L17.1188 20.9937L11.9133 18.1576C11.8552 18.1263 11.7799 18.1106 11.7045 18.1106C11.6292 18.1106 11.5523 18.1263 11.4958 18.1576L6.28876 20.9921L12.122 24.3848C12.1753 24.4145 12.2177 24.4851 12.2177 24.5478V29.4972C12.2177 29.5599 12.1738 29.6305 12.1188 29.6603L11.805 29.8343C11.7783 29.8484 11.7453 29.8562 11.7108 29.8562C11.7092 29.8562 11.7061 29.8562 11.7045 29.8562C11.6669 29.8578 11.6324 29.85 11.6041 29.8343L11.2887 29.6587C11.2353 29.6305 11.1914 29.5584 11.1914 29.4956V25.084C11.1882 25.0511 11.1647 25.0119 11.1396 24.9977L6 22.0096V27.8636C6 27.9953 6.09259 28.1568 6.20558 28.2226L11.499 31.3409C11.5555 31.3738 11.6308 31.3911 11.7045 31.3895C11.7783 31.3895 11.8536 31.3738 11.9101 31.3409L17.2035 28.2226C17.3165 28.1552 17.4091 27.9953 17.4091 27.8636V22.0096L13.9252 24.0367Z" fill="url(#paint0_linear_927_7916)"/>
<path d="M24.8521 23.4472C24.4456 23.2011 24.0376 23.0945 23.4914 23.0945C22.0335 23.0945 20.9727 24.09 20.9727 25.5998C20.9727 27.0985 21.9598 28.0847 23.5024 28.0847C23.9952 28.0847 24.4676 27.9874 24.896 27.7319V26.5216C24.5319 26.8007 24.1349 26.9496 23.6845 26.9496C22.8166 26.9496 22.2689 26.393 22.2689 25.5794C22.2689 24.7234 22.837 24.2311 23.6311 24.2311C24.0705 24.2311 24.4566 24.3487 24.8521 24.6701V23.4472Z" fill="#3C3C3B"/>
<path d="M32.7284 26.8821H32.7237C32.2545 26.8429 32.0113 26.5701 32.0113 26.0826V21.0312H30.7275V26.1657C30.7275 27.5657 31.5122 28.0234 32.7284 28.0297V26.8821Z" fill="#3C3C3B"/>
<path d="M27.7289 23.0945C26.3023 23.0945 25.2305 24.101 25.2305 25.5888C25.2305 27.0766 26.3023 28.0847 27.7289 28.0847C29.1538 28.0847 30.2367 27.0782 30.2367 25.5888C30.2367 24.101 29.1538 23.0945 27.7289 23.0945ZM27.7289 26.9715C27.0321 26.9715 26.5283 26.4463 26.5283 25.5904C26.5283 24.7344 27.0321 24.2092 27.7289 24.2092C28.4256 24.2092 28.9294 24.7344 28.9294 25.5904C28.9294 26.4463 28.4256 26.9715 27.7289 26.9715Z" fill="#3C3C3B"/>
<path d="M35.4089 27.6455C35.795 27.8917 36.3835 28.0312 36.9626 28.0312C38.0768 28.0312 38.8599 27.5593 38.8599 26.5214C38.8599 25.6654 38.4425 25.1935 37.209 24.9678C36.7586 24.8612 36.5875 24.7326 36.5875 24.4865C36.5875 24.2623 36.7695 24.0804 37.198 24.0804C37.6907 24.0804 38.1082 24.2403 38.5586 24.5414V23.3938C38.1411 23.1586 37.7221 23.041 37.154 23.041C36.1261 23.041 35.332 23.5223 35.332 24.5727C35.332 25.4397 35.7824 25.8677 36.8637 26.0621C37.3894 26.1687 37.5934 26.2863 37.5934 26.5763C37.5934 26.8757 37.3251 26.9933 36.9296 26.9933C36.4572 26.9933 35.8578 26.7895 35.4074 26.4587V27.6455H35.4089Z" fill="#3C3C3B"/>
<path d="M33.3232 27.9779H34.6132V27.5671V23.1899H33.3232V27.9779Z" fill="#3C3C3B"/>
<path d="M33.9682 21.2805C33.612 21.2805 33.3232 21.569 33.3232 21.9249C33.3232 22.2807 33.612 22.5692 33.9682 22.5692C34.3245 22.5692 34.6132 22.2807 34.6132 21.9249C34.6132 21.5674 34.3245 21.2805 33.9682 21.2805Z" fill="#3C3C3B"/>
<path d="M55.4915 23.0945C54.0666 23.0945 52.9932 24.101 52.9932 25.5888C52.9932 27.0766 54.065 28.0847 55.4915 28.0847C56.9165 28.0847 57.9994 27.0782 57.9994 25.5888C57.9994 24.101 56.9165 23.0945 55.4915 23.0945ZM55.4915 26.9715C54.7948 26.9715 54.291 26.4463 54.291 25.5904C54.291 24.7344 54.7948 24.2092 55.4915 24.2092C56.1883 24.2092 56.6921 24.7344 56.6921 25.5904C56.6921 26.4463 56.1883 26.9715 55.4915 26.9715Z" fill="#3C3C3B"/>
<path d="M39.2911 27.6455C39.6772 27.8917 40.2657 28.0312 40.8448 28.0312C41.9606 28.0312 42.7421 27.5593 42.7421 26.5214C42.7421 25.6654 42.3247 25.1935 41.0912 24.9678C40.6408 24.8612 40.4697 24.7326 40.4697 24.4865C40.4697 24.2623 40.6518 24.0804 41.0818 24.0804C41.5745 24.0804 41.992 24.2403 42.4424 24.5414V23.3938C42.0249 23.1586 41.6059 23.041 41.0378 23.041C40.0099 23.041 39.2158 23.5223 39.2158 24.5727C39.2158 25.4397 39.6662 25.8677 40.7475 26.0621C41.2732 26.1687 41.4772 26.2863 41.4772 26.5763C41.4772 26.8757 41.2089 26.9933 40.8134 26.9933C40.341 26.9933 39.7415 26.7895 39.2911 26.4587V27.6455Z" fill="#3C3C3B"/>
<path d="M43.2949 27.9779H44.5849V27.5671V23.1899H43.2949V27.9779Z" fill="#3C3C3B"/>
<path d="M43.9399 21.2805C43.5837 21.2805 43.2949 21.569 43.2949 21.9249C43.2949 22.2807 43.5837 22.5692 43.9399 22.5692C44.2962 22.5692 44.5849 22.2807 44.5849 21.9249C44.5849 21.5674 44.2962 21.2805 43.9399 21.2805Z" fill="#3C3C3B"/>
<path d="M51.1703 24.9914C51.1703 24.4882 50.9459 24.231 50.4421 24.231C50.1 24.231 49.7563 24.3063 49.5429 24.4129C49.5853 24.5195 49.6386 24.681 49.6386 24.9052V27.9764H48.3424V24.9914C48.3424 24.4882 48.1069 24.231 47.6142 24.231C47.3034 24.231 47.068 24.2734 46.8107 24.3486V27.9764H45.5254V23.5161C46.1892 23.259 46.9707 23.0991 47.6785 23.0991C48.2356 23.0991 48.7064 23.2387 48.9968 23.4738C49.4252 23.281 49.918 23.0991 50.6147 23.0991C51.7509 23.0991 52.4681 23.5381 52.4681 24.9397V27.978H51.1719V24.9914H51.1703Z" fill="#3C3C3B"/>
</g>
<rect x="1" y="1.75" width="62" height="46" rx="7" stroke="#E5E5E5" stroke-width="2"/>
<defs>
<linearGradient id="paint0_linear_927_7916" x1="6.13245" y1="28.0885" x2="17.1036" y2="21.2713" gradientUnits="userSpaceOnUse">
<stop stop-color="#EC6608"/>
<stop offset="0.168" stop-color="#ED6C07"/>
<stop offset="0.3875" stop-color="#EF7A07"/>
<stop offset="0.6356" stop-color="#F39107"/>
<stop offset="0.9028" stop-color="#F9AF06"/>
<stop offset="1" stop-color="#FBBA07"/>
</linearGradient>
<clipPath id="clip0_927_7916">
<rect width="52" height="13.2789" fill="white" transform="translate(6 18.1106)"/>
</clipPath>
</defs>
</svg>
