<svg width="64" height="49" viewBox="0 0 64 49" fill="none" xmlns="http://www.w3.org/2000/svg">
<rect x="1" y="1.75" width="62" height="46" rx="7" fill="white"/>
<g clip-path="url(#clip0_927_7932)">
<mask id="mask0_927_7932" style="mask-type:luminance" maskUnits="userSpaceOnUse" x="6" y="15" width="52" height="19">
<path d="M58 15.7488H6V33.7511H58V15.7488Z" fill="white"/>
</mask>
<g mask="url(#mask0_927_7932)">
<path d="M6 30.7154C6.02018 31.2814 6.22515 31.8257 6.58413 32.2665C6.94311 32.7072 7.43673 33.0208 7.99087 33.1599C8.73416 33.3417 12.5663 33.7558 14.8332 33.7558C17.1001 33.7558 20.9338 33.3417 21.6771 33.1599C22.2312 33.0208 22.7249 32.7072 23.0839 32.2665C23.4428 31.8257 23.6478 31.2814 23.668 30.7154V18.7801C23.6476 18.2141 23.4425 17.67 23.0836 17.2292C22.7246 16.7885 22.2311 16.4749 21.6771 16.3355C20.9338 16.1537 17.1017 15.7412 14.8332 15.7412C12.5648 15.7412 8.73416 16.1537 7.99087 16.3355C7.43685 16.4749 6.94337 16.7885 6.58443 17.2292C6.22549 17.67 6.02043 18.2141 6 18.7801V30.7154Z" fill="#96154A"/>
<path d="M16.193 24.4406C14.6756 24.1732 13.664 24.9784 13.664 26.2847V29.2731L11.2783 30.7872V26.2847C11.2783 23.6721 13.1042 21.854 16.193 22.2222V24.4406Z" fill="white"/>
<path d="M15.3882 19.926C15.3882 20.1944 15.3079 20.4567 15.1574 20.6798C15.007 20.9029 14.7931 21.0768 14.5429 21.1795C14.2926 21.2822 14.0173 21.309 13.7517 21.2567C13.486 21.2043 13.242 21.0751 13.0505 20.8854C12.859 20.6956 12.7286 20.4539 12.6757 20.1907C12.6229 19.9276 12.65 19.6548 12.7537 19.4069C12.8573 19.159 13.0328 18.9471 13.258 18.798C13.4832 18.6489 13.748 18.5693 14.0188 18.5693C14.382 18.5693 14.7303 18.7123 14.9871 18.9667C15.2439 19.2211 15.3882 19.5662 15.3882 19.926Z" fill="white"/>
<path d="M16.7637 24.2604C16.7672 24.343 16.7975 24.4223 16.8499 24.4867C16.9024 24.551 16.9743 24.597 17.0551 24.6179C17.3858 24.67 17.7197 24.6991 18.0544 24.705C18.3897 24.6991 18.7241 24.67 19.0552 24.6179C19.136 24.597 19.2079 24.551 19.2604 24.4867C19.3129 24.4223 19.3431 24.343 19.3467 24.2604V22.5156C19.3433 22.433 19.3131 22.3539 19.2606 22.2897C19.208 22.2256 19.136 22.1799 19.0552 22.1596C18.7241 22.1075 18.3897 22.0783 18.0544 22.0725C17.7197 22.0784 17.3858 22.1075 17.0551 22.1596C16.9743 22.1799 16.9023 22.2256 16.8498 22.2897C16.7973 22.3539 16.7671 22.433 16.7637 22.5156V24.2604Z" fill="#F6ABB6"/>
<path d="M42.1689 20.5463C42.4919 20.8519 42.6533 21.3102 42.6533 21.9213V24.3231H41.6678V22.0466C41.6885 21.747 41.593 21.4509 41.4011 21.2185C41.3038 21.1226 41.187 21.0483 41.0587 21.0003C40.9303 20.9524 40.7932 20.932 40.6564 20.9405C40.4976 20.9321 40.3389 20.9567 40.1905 21.0128C40.0421 21.0688 39.9071 21.155 39.7943 21.2659C39.5674 21.5248 39.4534 21.862 39.4765 22.204V24.3231H38.4912V20.1323H39.4287V20.6731C39.5945 20.4787 39.8064 20.328 40.0454 20.2346C40.3127 20.1305 40.5974 20.0786 40.8844 20.0818C41.1183 20.0701 41.3521 20.1045 41.5726 20.1832C41.7928 20.2619 41.995 20.3833 42.1674 20.5402" fill="#96154A"/>
<path d="M35.8215 24.4162C35.3827 24.4229 34.9519 24.3001 34.5838 24.0634C34.2157 23.8268 33.927 23.487 33.7544 23.0873C33.5818 22.6876 33.5331 22.246 33.6146 21.8189C33.6961 21.3917 33.904 20.9982 34.2119 20.6884C34.5197 20.3786 34.9136 20.1666 35.3435 20.0793C35.7734 19.992 36.2197 20.0334 36.6257 20.1982C37.032 20.3629 37.3793 20.6437 37.6238 21.0047C37.8682 21.3657 37.999 21.7906 37.999 22.2253C38.003 22.8018 37.7761 23.3563 37.3677 23.7671C36.9596 24.1779 36.4034 24.4114 35.8215 24.4162ZM35.8508 21.026C35.6062 21.0229 35.3661 21.092 35.1612 21.2245C34.9563 21.3569 34.7958 21.5467 34.7001 21.7698C34.6043 21.9929 34.5777 22.2391 34.6235 22.4772C34.6694 22.7153 34.7856 22.9345 34.9575 23.1069C35.1295 23.2794 35.3493 23.3973 35.589 23.4458C35.8287 23.4942 36.0775 23.4709 36.3039 23.3788C36.5302 23.2868 36.7236 23.1302 36.8602 22.9288C36.9964 22.7275 37.0691 22.4906 37.0691 22.2482C37.0691 21.9267 36.9414 21.6181 36.7133 21.3893C36.4852 21.1605 36.1753 21.03 35.8508 21.026Z" fill="#96154A"/>
<path d="M45.4407 30.6969V26.5061H44.4971V26.9034C44.1745 26.6563 43.7886 26.5037 43.3829 26.4629C42.9773 26.4222 42.5683 26.4949 42.2024 26.6729C41.8363 26.8508 41.528 27.1269 41.3124 27.4697C41.0968 27.8125 40.9824 28.2083 40.9824 28.6122C40.9824 29.0162 41.0968 29.412 41.3124 29.7548C41.528 30.0976 41.8363 30.3737 42.2024 30.5516C42.5683 30.7296 42.9773 30.8023 43.3829 30.7616C43.7886 30.7208 44.1745 30.5682 44.4971 30.3211V30.6969H45.4407ZM43.1661 29.8994C42.9092 29.8994 42.6577 29.8239 42.4439 29.6824C42.2301 29.5408 42.0635 29.3397 41.9653 29.1044C41.8667 28.869 41.8412 28.6101 41.8914 28.3602C41.9412 28.1104 42.0653 27.8809 42.2468 27.7007C42.4287 27.5206 42.6604 27.398 42.9125 27.3483C43.1649 27.2986 43.4261 27.3241 43.6636 27.4216C43.9011 27.519 44.1042 27.6841 44.2472 27.8959C44.3901 28.1077 44.4661 28.3567 44.4661 28.6115C44.4658 28.9529 44.3287 29.2803 44.0851 29.5217C43.8412 29.7632 43.511 29.899 43.1661 29.8994Z" fill="#96154A"/>
<path d="M53.4464 20.1292V20.5494C53.1237 20.3022 52.7378 20.1497 52.3322 20.1089C51.9265 20.0682 51.5175 20.1409 51.1517 20.3189C50.7855 20.4968 50.4772 20.7729 50.2616 21.1157C50.046 21.4585 49.9316 21.8543 49.9316 22.2582C49.9316 22.6622 50.046 23.058 50.2616 23.4008C50.4772 23.7436 50.7855 24.0197 51.1517 24.1976C51.5175 24.3756 51.9265 24.4483 52.3322 24.4076C52.7378 24.3668 53.1237 24.2142 53.4464 23.9671V24.3216H54.39V20.1292H53.4464ZM52.1153 23.5454C51.8584 23.5457 51.6069 23.4705 51.3928 23.3291C51.1787 23.1878 51.0121 22.9867 50.9133 22.7514C50.8147 22.5161 50.7886 22.2571 50.8388 22.0072C50.8886 21.7572 51.0124 21.5276 51.1942 21.3473C51.3758 21.167 51.6075 21.0442 51.8596 20.9944C52.112 20.9445 52.3735 20.97 52.611 21.0674C52.8488 21.1649 53.0519 21.3299 53.1946 21.5418C53.3375 21.7536 53.4138 22.0027 53.4138 22.2575C53.4135 22.5987 53.2767 22.9258 53.0334 23.1672C52.7898 23.4086 52.4599 23.5446 52.1153 23.5454Z" fill="#96154A"/>
<path d="M36.1633 29.8874C35.9089 29.9414 35.6442 29.9228 35.4001 29.8335C35.156 29.7442 34.9426 29.5881 34.7846 29.3832L34.834 29.3679L38.0617 28.2985C37.9835 27.8746 37.7983 27.4773 37.5234 27.1434C37.2908 26.8601 36.9815 26.6481 36.6321 26.5323C36.2591 26.4156 35.8637 26.387 35.4776 26.4488C35.0914 26.5106 34.7253 26.6611 34.4084 26.8883C34.1079 27.1122 33.8766 27.4149 33.7406 27.7622C33.5997 28.1228 33.5592 28.5144 33.6234 28.8958C33.6534 29.1005 33.712 29.3 33.7977 29.4886C34.1894 30.387 35.1933 30.9034 36.2327 30.746L36.3345 30.7292C36.7045 30.6627 37.0512 30.5026 37.3407 30.2644C37.6299 30.0261 37.8525 29.7179 37.986 29.3694L37.1904 29.0639C37.1017 29.2742 36.9612 29.4591 36.7817 29.6016C36.6023 29.7442 36.3897 29.8398 36.1633 29.8797V29.8874ZM34.5842 28.711C34.5491 28.5411 34.5483 28.366 34.5819 28.1958C34.6155 28.0256 34.6829 27.8637 34.78 27.7194C34.8781 27.5854 35.0035 27.4733 35.1479 27.3901C35.2924 27.307 35.4528 27.2547 35.6189 27.2366C35.8918 27.1875 36.1735 27.2282 36.4208 27.3527C36.651 27.4719 36.8322 27.6662 36.9344 27.9027L34.5857 28.711H34.5842Z" fill="#96154A"/>
<path d="M38.4912 29.1051C38.4949 29.4239 38.5894 29.7351 38.764 30.003C38.9385 30.2708 39.1858 30.4844 39.4774 30.6192C39.7693 30.7539 40.0932 30.8043 40.4125 30.7646C40.7318 30.7248 41.0334 30.5966 41.2822 30.3946L40.6655 29.6398C40.5347 29.7452 40.3714 29.8025 40.203 29.8018C40.0141 29.8038 39.8323 29.7316 39.6972 29.601C39.5622 29.4704 39.485 29.292 39.4826 29.1051V24.9509H38.4973L38.4912 29.1051Z" fill="#96154A"/>
<path d="M57.3752 23.2382C57.2451 23.3442 57.0812 23.4015 56.9127 23.4002C56.819 23.4014 56.7263 23.3843 56.6396 23.3499C56.5526 23.3155 56.4736 23.2645 56.4067 23.1998C56.3398 23.1351 56.2866 23.058 56.2498 22.9728C56.213 22.8876 56.1935 22.7961 56.1926 22.7035V18.6731L55.207 19.2995V22.7035C55.211 23.0223 55.3056 23.3335 55.4801 23.6014C55.6547 23.8693 55.9019 24.0829 56.1935 24.2176C56.4851 24.3523 56.8093 24.4027 57.1286 24.363C57.4479 24.3232 57.7493 24.195 57.9983 23.993L57.3752 23.2382Z" fill="#96154A"/>
<path d="M32.1168 24.3154H33.1516V19.0612C33.151 18.9571 33.1171 18.8559 33.0549 18.772C32.9927 18.6881 32.9053 18.6258 32.8052 18.5941C32.7051 18.5624 32.5974 18.5629 32.4976 18.5955C32.3978 18.6281 32.3109 18.6911 32.2495 18.7756L30.7073 20.9145L29.1652 18.7756C29.104 18.6907 29.0172 18.6272 28.9172 18.5945C28.8172 18.5617 28.7093 18.5613 28.609 18.5932C28.5088 18.6252 28.4214 18.6879 28.3595 18.7723C28.2976 18.8567 28.2644 18.9585 28.2647 19.0628V24.317H29.2994V20.8427L29.3642 20.9206C29.762 21.4141 30.3681 22.1581 30.402 22.1902C30.4853 22.2687 30.5955 22.313 30.7104 22.314C30.8252 22.3121 30.9351 22.2679 31.0189 22.1902C31.0512 22.1581 31.6573 21.4141 32.0567 20.9206L32.1199 20.8427L32.1168 24.3154Z" fill="#96154A"/>
<path d="M49.4433 20.4058H48.458V24.3216H49.4433V20.4058Z" fill="#96154A"/>
<path d="M49.5706 19.1956C49.5706 19.0747 49.5344 18.9566 49.4666 18.8561C49.3988 18.7556 49.3024 18.6773 49.1899 18.631C49.077 18.5847 48.953 18.5726 48.8335 18.5962C48.7136 18.6198 48.6039 18.678 48.5175 18.7635C48.4311 18.8489 48.3724 18.9578 48.3487 19.0764C48.325 19.1949 48.3372 19.3178 48.3837 19.4295C48.4305 19.5411 48.5096 19.6366 48.6112 19.7037C48.7124 19.7709 48.8316 19.8067 48.9536 19.8067C49.1172 19.8067 49.2741 19.7424 49.3899 19.6277C49.5055 19.5131 49.5706 19.3577 49.5706 19.1956Z" fill="#96154A"/>
<path d="M49.5721 26.5125V28.5582C49.5721 29.2503 49.074 29.7805 48.4123 29.7805C47.7509 29.7805 47.2528 29.258 47.2528 28.5582V26.517H46.2657V28.5582C46.2587 28.8424 46.3092 29.1251 46.4138 29.3899C46.5184 29.6546 46.675 29.896 46.8751 30.1C47.0749 30.304 47.3139 30.4665 47.5778 30.5779C47.8418 30.6894 48.1255 30.7476 48.4123 30.7491C48.8286 30.7503 49.2342 30.6215 49.5721 30.3809V30.9126C49.5721 31.9821 48.7069 32.8071 47.5672 32.8071C46.2009 32.8071 45.5486 32.0432 45.4471 31.3373H44.4971C44.6187 32.7505 45.8755 33.7543 47.5611 33.7543C48.3396 33.7631 49.0928 33.4798 49.6691 32.9614C49.9531 32.6999 50.1788 32.3826 50.332 32.0299C50.4853 31.6771 50.5625 31.2966 50.5592 30.9126V26.517L49.5721 26.5125Z" fill="#96154A"/>
<path d="M46.656 18.644V20.5492C46.3337 20.3021 45.9478 20.1495 45.5421 20.1088C45.1365 20.068 44.7274 20.1408 44.3613 20.3187C43.9955 20.4967 43.6871 20.7727 43.4715 21.1155C43.2559 21.4584 43.1416 21.8542 43.1416 22.2581C43.1416 22.662 43.2559 23.0579 43.4715 23.4007C43.6871 23.7435 43.9955 24.0195 44.3613 24.1975C44.7274 24.3754 45.1365 24.4482 45.5421 24.4074C45.9478 24.3667 46.3337 24.2141 46.656 23.967V24.3214H47.637V18.644H46.656ZM45.3253 23.5453C45.0683 23.5453 44.8169 23.4697 44.6031 23.3283C44.3893 23.1867 44.2227 22.9856 44.1241 22.7502C44.0259 22.5149 44.0001 22.2559 44.0502 22.0061C44.1004 21.7562 44.2242 21.5267 44.406 21.3466C44.5879 21.1665 44.8196 21.0438 45.0717 20.9941C45.3238 20.9444 45.5853 20.9699 45.8228 21.0674C46.0603 21.1649 46.2634 21.33 46.4063 21.5418C46.549 21.7536 46.6253 22.0026 46.6253 22.2574C46.625 22.5988 46.4878 22.9262 46.244 23.1676C46.0004 23.4091 45.6698 23.5449 45.3253 23.5453Z" fill="#96154A"/>
<path d="M32.3853 30.6971H33.6714L32.2218 28.6635L32.2542 28.6437C32.5234 28.4926 32.7517 28.2791 32.9195 28.0215C33.0874 27.764 33.1898 27.47 33.218 27.1647C33.2429 26.8846 33.2099 26.6023 33.1211 26.3352C33.0323 26.068 32.8895 25.8216 32.7014 25.6109C32.5158 25.4042 32.2884 25.2386 32.0338 25.1249C31.7792 25.0111 31.5033 24.9519 31.2241 24.9509H29.4167C29.1048 24.9549 28.8072 25.0814 28.5892 25.3025C28.3712 25.5236 28.2507 25.8213 28.254 26.1304V30.6971H29.2903V28.9462H31.1408L32.3853 30.6971ZM29.3257 27.9149H29.2903V26.3138C29.2894 26.2257 29.3239 26.1408 29.386 26.0779C29.4481 26.0149 29.5329 25.9788 29.6218 25.9776H31.1886C31.4449 25.9691 31.6944 26.0605 31.8835 26.2322C32.0725 26.4039 32.186 26.6423 32.1995 26.8961C32.213 27.1498 32.1255 27.3987 31.9558 27.5892C31.7861 27.7797 31.5478 27.8967 31.2919 27.9149H29.3257Z" fill="#96154A"/>
</g>
</g>
<rect x="1" y="1.75" width="62" height="46" rx="7" stroke="#E5E5E5" stroke-width="2"/>
<defs>
<clipPath id="clip0_927_7932">
<rect width="52" height="18.0023" fill="white" transform="translate(6 15.7488)"/>
</clipPath>
</defs>
</svg>
