<svg width="74" height="74" viewBox="0 0 108 120" fill="none" xmlns="http://www.w3.org/2000/svg">
<path d="M87.75 39.7361H7.75C6.68913 39.7361 5.67172 40.1575 4.92157 40.9077C4.17143 41.6578 3.75 42.6752 3.75 43.7361V99.7361C3.75 100.797 4.17143 101.814 4.92157 102.565C5.67172 103.315 6.68913 103.736 7.75 103.736H87.75C88.8109 103.736 89.8283 103.315 90.5784 102.565C91.3286 101.814 91.75 100.797 91.75 99.7361V43.7361C91.75 42.6752 91.3286 41.6578 90.5784 40.9077C89.8283 40.1575 88.8109 39.7361 87.75 39.7361ZM47.75 75.7361C45.7722 75.7361 43.8388 75.1496 42.1943 74.0508C40.5498 72.952 39.2681 71.3902 38.5112 69.5629C37.7543 67.7357 37.5563 65.725 37.9421 63.7852C38.328 61.8454 39.2804 60.0635 40.6789 58.665C42.0775 57.2665 43.8593 56.3141 45.7991 55.9282C47.7389 55.5424 49.7496 55.7404 51.5768 56.4973C53.4041 57.2542 54.9659 58.5359 56.0647 60.1804C57.1635 61.8249 57.75 63.7583 57.75 65.7361C57.75 68.3882 56.6964 70.9318 54.8211 72.8072C52.9457 74.6825 50.4022 75.7361 47.75 75.7361Z" fill="#B5B6CC"/>
<path fill-rule="evenodd" clip-rule="evenodd" d="M7.75 42.7361C7.19772 42.7361 6.75 43.1838 6.75 43.7361V99.7361C6.75 100.288 7.19772 100.736 7.75 100.736H87.75C88.3023 100.736 88.75 100.288 88.75 99.7361V43.7361C88.75 43.1838 88.3023 42.7361 87.75 42.7361H7.75ZM0.75 43.7361C0.75 39.8701 3.88401 36.7361 7.75 36.7361H87.75C91.616 36.7361 94.75 39.8701 94.75 43.7361V99.7361C94.75 103.602 91.616 106.736 87.75 106.736H7.75C3.88401 106.736 0.75 103.602 0.75 99.7361V43.7361Z" fill="#0F1559"/>
<path fill-rule="evenodd" clip-rule="evenodd" d="M47.75 6.73608C43.2413 6.73608 38.9173 8.52715 35.7292 11.7153C32.5411 14.9034 30.75 19.2274 30.75 23.7361V39.7361C30.75 41.3929 29.4069 42.7361 27.75 42.7361C26.0931 42.7361 24.75 41.3929 24.75 39.7361V23.7361C24.75 17.6361 27.1732 11.786 31.4865 7.47263C35.7999 3.15929 41.65 0.736084 47.75 0.736084C53.85 0.736084 59.7001 3.15929 64.0135 7.47263C68.3268 11.786 70.75 17.6361 70.75 23.7361V39.7361C70.75 41.3929 69.4069 42.7361 67.75 42.7361C66.0931 42.7361 64.75 41.3929 64.75 39.7361V23.7361C64.75 19.2274 62.9589 14.9034 59.7708 11.7153C56.5827 8.52715 52.2587 6.73608 47.75 6.73608Z" fill="#0F1559"/>
<path fill-rule="evenodd" clip-rule="evenodd" d="M47.75 58.7361C43.884 58.7361 40.75 61.8701 40.75 65.7361C40.75 69.6021 43.884 72.7361 47.75 72.7361C51.616 72.7361 54.75 69.6021 54.75 65.7361C54.75 61.8701 51.616 58.7361 47.75 58.7361ZM34.75 65.7361C34.75 58.5564 40.5703 52.7361 47.75 52.7361C54.9297 52.7361 60.75 58.5564 60.75 65.7361C60.75 72.9158 54.9297 78.7361 47.75 78.7361C40.5703 78.7361 34.75 72.9158 34.75 65.7361Z" fill="#0F1559"/>
<path fill-rule="evenodd" clip-rule="evenodd" d="M47.75 72.7361C49.4069 72.7361 50.75 74.0792 50.75 75.7361V87.7361C50.75 89.3929 49.4069 90.7361 47.75 90.7361C46.0931 90.7361 44.75 89.3929 44.75 87.7361V75.7361C44.75 74.0792 46.0931 72.7361 47.75 72.7361Z" fill="#0F1559"/>
<path d="M80.6663 114.071C81.9641 117.531 86.8592 117.531 88.157 114.071L91.3172 105.644C91.7228 104.562 92.5763 103.708 93.658 103.303L102.085 100.143C105.546 98.8448 105.546 93.9497 102.085 92.6519L93.658 89.4917C92.5763 89.0861 91.7228 88.2326 91.3172 87.1509L88.157 78.7238C86.8592 75.2631 81.9641 75.2631 80.6663 78.7237L77.5061 87.1509C77.1005 88.2326 76.247 89.0861 75.1653 89.4917L66.7382 92.6519C63.2775 93.9497 63.2775 98.8448 66.7382 100.143L75.1653 103.303C76.247 103.708 77.1005 104.562 77.5061 105.644L80.6663 114.071Z" fill="#02BFFF"/>
<path fill-rule="evenodd" clip-rule="evenodd" d="M83.4753 113.017C83.7998 113.883 85.0236 113.883 85.348 113.017L88.5082 104.59C89.218 102.697 90.7116 101.204 92.6046 100.494L101.032 97.3336C101.897 97.0091 101.897 95.7854 101.032 95.4609L92.6046 92.3007C90.7117 91.5909 89.218 90.0973 88.5082 88.2043L85.348 79.7771C85.0235 78.9119 83.7998 78.912 83.4753 79.7771L80.3151 88.2043C79.6053 90.0972 78.1117 91.5909 76.2187 92.3007L67.7915 95.4609C66.9263 95.7854 66.9264 97.0091 67.7915 97.3336L76.2187 100.494C78.1117 101.204 79.6053 102.697 80.3151 104.59L83.4753 113.017ZM90.966 115.124C88.6949 121.18 80.1284 121.18 77.8573 115.124L74.6972 106.697C74.5958 106.427 74.3824 106.213 74.112 106.112L65.6848 102.952C59.6286 100.68 59.6286 92.114 65.6848 89.8429L74.112 86.6828C74.3824 86.5813 74.5958 86.368 74.6972 86.0975L77.8574 77.6704C80.1284 71.6142 88.6949 71.6142 90.966 77.6704L94.1262 86.0975C94.2276 86.368 94.4409 86.5813 94.7114 86.6828L103.139 89.8429C109.195 92.114 109.195 100.68 103.139 102.952L94.7114 106.112C94.4409 106.213 94.2276 106.427 94.1261 106.697L90.966 115.124Z" fill="#0F1559"/>
</svg>
