<svg width="64" height="64" viewBox="0 0 64 64" fill="none" xmlns="http://www.w3.org/2000/svg">
<rect width="64" height="64" rx="16" fill="#F4F6FD"/>
<g clip-path="url(#clip0_365_383)">
<path opacity="0.2" d="M32 36C36.4183 36 40 32.4183 40 28C40 23.5817 36.4183 20 32 20C27.5817 20 24 23.5817 24 28C24 32.4183 27.5817 36 32 36Z" fill="#0F1559"/>
<path d="M32 36C36.4183 36 40 32.4183 40 28C40 23.5817 36.4183 20 32 20C27.5817 20 24 23.5817 24 28C24 32.4183 27.5817 36 32 36Z" stroke="#0F1559" stroke-width="3" stroke-linecap="round" stroke-linejoin="round"/>
<path d="M20 43C22.4213 38.8162 26.8187 36 32 36C37.1813 36 41.5787 38.8162 44 43" stroke="#0F1559" stroke-width="3" stroke-linecap="round" stroke-linejoin="round"/>
</g>
<defs>
<clipPath id="clip0_365_383">
<rect width="32" height="32" fill="white" transform="translate(16 16)"/>
</clipPath>
</defs>
</svg>
