<svg width="128" height="128" viewBox="0 0 128 128" fill="none" xmlns="http://www.w3.org/2000/svg">
<g clip-path="url(#clip0_241_2750)">
<path opacity="0.2" d="M50.5552 98.555L29.4452 77.445L20.2452 102.76C19.9886 103.458 19.937 104.215 20.0968 104.941C20.2565 105.667 20.6208 106.333 21.1467 106.859C21.6725 107.384 22.3379 107.749 23.0642 107.908C23.7904 108.068 24.5473 108.017 25.2452 107.76L50.5552 98.555Z" fill="#F4F6FD"/>
<path opacity="0.2" d="M39.0449 51.045L76.9549 88.955L97.4549 81.505C98.0717 81.2817 98.622 80.9064 99.055 80.4137C99.488 79.921 99.7895 79.3269 99.9316 78.6866C100.074 78.0463 100.052 77.3804 99.868 76.7508C99.6842 76.1212 99.3443 75.5482 98.8799 75.085L52.9149 29.145C52.4516 28.6818 51.879 28.3429 51.25 28.1598C50.621 27.9766 49.9559 27.9551 49.3164 28.0971C48.6768 28.2392 48.0835 28.5403 47.5912 28.9725C47.0989 29.4048 46.7235 29.9542 46.4999 30.57L39.0449 51.045Z" fill="#F4F6FD"/>
<path d="M20.2443 102.76L46.4993 30.57C46.7225 29.9533 47.0979 29.4029 47.5906 28.9699C48.0833 28.537 48.6774 28.2354 49.3177 28.0933C49.958 27.9512 50.6239 27.9731 51.2535 28.1569C51.8831 28.3408 52.4561 28.6806 52.9193 29.145L98.8593 75.085C99.3224 75.5486 99.661 76.1216 99.8438 76.7509C100.027 77.3802 100.048 78.0454 99.9052 78.685C99.7626 79.3246 99.461 79.9179 99.0282 80.41C98.5954 80.902 98.0454 81.2769 97.4293 81.5L25.2393 107.755C24.5421 108.01 23.7867 108.06 23.062 107.9C22.3373 107.739 21.6735 107.375 21.1486 106.851C20.6238 106.326 20.2599 105.662 20.0996 104.937C19.9394 104.213 19.9896 103.457 20.2443 102.76Z" stroke="#F4F6FD" stroke-width="6" stroke-linecap="round" stroke-linejoin="round"/>
<path d="M84 36C84 36 84 24 96 24C108 24 108 12 108 12" stroke="#F4F6FD" stroke-width="6" stroke-linecap="round" stroke-linejoin="round"/>
<path d="M72 8V20" stroke="#F4F6FD" stroke-width="6" stroke-linecap="round" stroke-linejoin="round"/>
<path d="M108 56L116 64" stroke="#F4F6FD" stroke-width="6" stroke-linecap="round" stroke-linejoin="round"/>
<path d="M108 40L120 36" stroke="#F4F6FD" stroke-width="6" stroke-linecap="round" stroke-linejoin="round"/>
<path d="M39.0449 51.045L76.9549 88.955" stroke="#F4F6FD" stroke-width="6" stroke-linecap="round" stroke-linejoin="round"/>
<path d="M50.5553 98.555L29.4453 77.445" stroke="#F4F6FD" stroke-width="6" stroke-linecap="round" stroke-linejoin="round"/>
</g>
<defs>
<clipPath id="clip0_241_2750">
<rect width="128" height="128" fill="white"/>
</clipPath>
</defs>
</svg>
