<svg width="74" height="74" viewBox="0 0 108 108" fill="none" xmlns="http://www.w3.org/2000/svg">
<path d="M100.25 3.73608H36.25C35.1891 3.73608 34.1717 4.15751 33.4216 4.90766C32.6714 5.6578 32.25 6.67522 32.25 7.73608V71.7361C32.25 72.797 32.6714 73.8144 33.4216 74.5645C34.1717 75.3147 35.1891 75.7361 36.25 75.7361H44.595L83.42 36.9061C83.7915 36.5342 84.2326 36.2391 84.7182 36.0378C85.2038 35.8365 85.7243 35.7329 86.25 35.7329C86.7757 35.7329 87.2962 35.8365 87.7818 36.0378C88.2674 36.2391 88.7085 36.5342 89.08 36.9061L104.25 52.0811V7.73608C104.25 6.67522 103.829 5.6578 103.078 4.90766C102.328 4.15751 101.311 3.73608 100.25 3.73608ZM56.25 35.7361C54.6677 35.7361 53.121 35.2669 51.8054 34.3878C50.4898 33.5088 49.4645 32.2594 48.859 30.7976C48.2535 29.3357 48.095 27.7272 48.4037 26.1754C48.7124 24.6235 49.4743 23.1981 50.5931 22.0792C51.712 20.9604 53.1374 20.1985 54.6893 19.8898C56.2411 19.5811 57.8497 19.7395 59.3115 20.345C60.7733 20.9505 62.0227 21.9759 62.9018 23.2915C63.7808 24.6071 64.25 26.1538 64.25 27.7361C64.25 29.8578 63.4071 31.8926 61.9069 33.3929C60.4066 34.8932 58.3717 35.7361 56.25 35.7361Z" fill="#B5B6CC"/>
<path fill-rule="evenodd" clip-rule="evenodd" d="M36.25 6.73608C35.6977 6.73608 35.25 7.1838 35.25 7.73608V71.7361C35.25 72.2884 35.6977 72.7361 36.25 72.7361H100.25C100.802 72.7361 101.25 72.2884 101.25 71.7361V7.73608C101.25 7.1838 100.802 6.73608 100.25 6.73608H36.25ZM29.25 7.73608C29.25 3.87009 32.384 0.736084 36.25 0.736084H100.25C104.116 0.736084 107.25 3.87009 107.25 7.73608V71.7361C107.25 75.6021 104.116 78.7361 100.25 78.7361H36.25C32.384 78.7361 29.25 75.6021 29.25 71.7361V7.73608Z" fill="#0F1559"/>
<path fill-rule="evenodd" clip-rule="evenodd" d="M56.25 22.7361C53.4886 22.7361 51.25 24.9747 51.25 27.7361C51.25 30.4975 53.4886 32.7361 56.25 32.7361C59.0114 32.7361 61.25 30.4975 61.25 27.7361C61.25 24.9747 59.0114 22.7361 56.25 22.7361ZM45.25 27.7361C45.25 21.661 50.1749 16.7361 56.25 16.7361C62.3251 16.7361 67.25 21.661 67.25 27.7361C67.25 33.8112 62.3251 38.7361 56.25 38.7361C50.1749 38.7361 45.25 33.8112 45.25 27.7361Z" fill="#0F1559"/>
<path fill-rule="evenodd" clip-rule="evenodd" d="M20.25 22.7361C19.9848 22.7361 19.7304 22.8414 19.5429 23.029C19.3554 23.2165 19.25 23.4709 19.25 23.7361V87.7361C19.25 88.0013 19.3554 88.2557 19.5429 88.4432C19.7304 88.6307 19.9848 88.7361 20.25 88.7361H84.25C84.5152 88.7361 84.7696 88.6307 84.9571 88.4432C85.1446 88.2557 85.25 88.0013 85.25 87.7361V75.7361C85.25 74.0792 86.5931 72.7361 88.25 72.7361C89.9069 72.7361 91.25 74.0792 91.25 75.7361V87.7361C91.25 89.5926 90.5125 91.3731 89.1998 92.6858C87.887 93.9986 86.1065 94.7361 84.25 94.7361H20.25C18.3935 94.7361 16.613 93.9986 15.3003 92.6858C13.9875 91.3731 13.25 89.5926 13.25 87.7361V23.7361C13.25 21.8796 13.9875 20.0991 15.3003 18.7863C16.613 17.4736 18.3935 16.7361 20.25 16.7361H32.25C33.9069 16.7361 35.25 18.0792 35.25 19.7361C35.25 21.3929 33.9069 22.7361 32.25 22.7361H20.25Z" fill="#0F1559"/>
<path fill-rule="evenodd" clip-rule="evenodd" d="M86.2497 38.7329C86.1183 38.7329 85.9882 38.7588 85.8668 38.8091C85.7454 38.8595 85.6351 38.9332 85.5422 39.0262L46.7162 77.8572C45.5447 79.0289 43.6452 79.029 42.4735 77.8575C41.3019 76.686 41.3018 74.7865 42.4733 73.6149L81.2972 34.7859C81.9473 34.1351 82.7194 33.6188 83.5691 33.2665C84.4189 32.9142 85.3298 32.7329 86.2497 32.7329C87.1696 32.7329 88.0805 32.9142 88.9303 33.2665C89.7801 33.6188 90.5521 34.1351 91.2022 34.7859L106.371 49.9601C107.543 51.1319 107.542 53.0313 106.371 54.2027C105.199 55.3741 103.299 55.3738 102.128 54.202L86.9572 39.0262C86.8644 38.9332 86.7541 38.8595 86.6327 38.8091C86.5113 38.7588 86.3811 38.7329 86.2497 38.7329Z" fill="#0F1559"/>
<path d="M20.1663 102.071C21.4641 105.531 26.3592 105.531 27.657 102.071L30.8172 93.6436C31.2228 92.5619 32.0763 91.7084 33.158 91.3028L41.5852 88.1426C45.0458 86.8448 45.0458 81.9497 41.5852 80.6519L33.158 77.4917C32.0763 77.0861 31.2228 76.2326 30.8172 75.1509L27.657 66.7238C26.3592 63.2631 21.4641 63.2631 20.1663 66.7237L17.0061 75.1509C16.6005 76.2326 15.747 77.0861 14.6653 77.4917L6.23816 80.6519C2.77748 81.9497 2.77748 86.8448 6.23815 88.1426L14.6653 91.3028C15.747 91.7084 16.6005 92.5619 17.0061 93.6436L20.1663 102.071Z" fill="#F5BB2C"/>
<path fill-rule="evenodd" clip-rule="evenodd" d="M22.9753 101.017C23.2998 101.883 24.5236 101.883 24.848 101.017L28.0082 92.5902C28.718 90.6973 30.2117 89.2036 32.1046 88.4938L40.5318 85.3336C41.397 85.0091 41.3969 83.7854 40.5318 83.4609L32.1046 80.3007C30.2117 79.5909 28.718 78.0973 28.0082 76.2043L24.848 67.7771C24.5235 66.9119 23.2998 66.912 22.9753 67.7771L19.8151 76.2043C19.1053 78.0972 17.6117 79.5909 15.7187 80.3007L7.29153 83.4609C6.42635 83.7854 6.42637 85.0091 7.29152 85.3336L15.7187 88.4938C17.6117 89.2036 19.1053 90.6972 19.8151 92.5902L22.9753 101.017ZM30.466 103.124C28.1949 109.18 19.6284 109.18 17.3573 103.124L14.1972 94.697C14.0958 94.4265 13.8824 94.2132 13.612 94.1117L5.18478 90.9516C-0.87141 88.6805 -0.871376 80.114 5.18479 77.8429L13.612 74.6828C13.8824 74.5813 14.0958 74.368 14.1972 74.0975L17.3574 65.6704C19.6284 59.6142 28.1949 59.6142 30.466 65.6704L33.6262 74.0975C33.7276 74.368 33.9409 74.5813 34.2114 74.6828L42.6385 77.8429C48.6947 80.114 48.6947 88.6805 42.6385 90.9516L34.2114 94.1117C33.9409 94.2132 33.7276 94.4265 33.6262 94.697L30.466 103.124Z" fill="#0F1559"/>
</svg>
