<svg width="74" height="74" viewBox="0 0 120 103" fill="none" xmlns="http://www.w3.org/2000/svg">
<path d="M76.25 43.7361C76.25 41.6144 77.0929 39.5795 78.5931 38.0792C80.0934 36.5789 82.1283 35.7361 84.25 35.7361H96.25V27.7361C96.25 25.6144 95.4071 23.5795 93.9069 22.0792C92.4066 20.5789 90.3717 19.7361 88.25 19.7361H16.25C14.1283 19.7361 12.0934 20.5789 10.5931 22.0792C9.09285 23.5795 8.25 25.6144 8.25 27.7361V75.7361C8.25 77.8578 9.09285 79.8926 10.5931 81.3929C12.0934 82.8932 14.1283 83.7361 16.25 83.7361H76.25V43.7361Z" fill="#B5B6CC"/>
<path fill-rule="evenodd" clip-rule="evenodd" d="M113.25 43.7361C113.25 40.9747 111.011 38.7361 108.25 38.7361H84.25C81.4886 38.7361 79.25 40.9747 79.25 43.7361V91.7361C79.25 94.4975 81.4886 96.7361 84.25 96.7361H108.25C111.011 96.7361 113.25 94.4975 113.25 91.7361V43.7361ZM108.25 32.7361C114.325 32.7361 119.25 37.661 119.25 43.7361V91.7361C119.25 97.8112 114.325 102.736 108.25 102.736H84.25C78.1749 102.736 73.25 97.8112 73.25 91.7361V43.7361C73.25 37.661 78.1749 32.7361 84.25 32.7361H108.25Z" fill="#0F1559"/>
<path fill-rule="evenodd" clip-rule="evenodd" d="M37.25 99.7361C37.25 98.0792 38.5931 96.7361 40.25 96.7361H60.25C61.9069 96.7361 63.25 98.0792 63.25 99.7361C63.25 101.393 61.9069 102.736 60.25 102.736H40.25C38.5931 102.736 37.25 101.393 37.25 99.7361Z" fill="#0F1559"/>
<path fill-rule="evenodd" clip-rule="evenodd" d="M16.25 22.7361C14.9239 22.7361 13.6521 23.2629 12.7145 24.2005C11.7768 25.1382 11.25 26.41 11.25 27.7361V75.7361C11.25 77.0622 11.7768 78.3339 12.7145 79.2716C13.6521 80.2093 14.9239 80.7361 16.25 80.7361H76.25C77.9069 80.7361 79.25 82.0792 79.25 83.7361C79.25 85.3929 77.9069 86.7361 76.25 86.7361H16.25C13.3326 86.7361 10.5347 85.5771 8.47183 83.5143C6.40893 81.4514 5.25 78.6535 5.25 75.7361V27.7361C5.25 24.8187 6.40892 22.0208 8.47183 19.9579C10.5347 17.895 13.3326 16.7361 16.25 16.7361H88.25C91.1674 16.7361 93.9653 17.895 96.0282 19.9579C98.0911 22.0208 99.25 24.8187 99.25 27.7361V35.7361C99.25 37.3929 97.9069 38.7361 96.25 38.7361C94.5931 38.7361 93.25 37.3929 93.25 35.7361V27.7361C93.25 26.41 92.7232 25.1382 91.7855 24.2005C90.8478 23.2629 89.5761 22.7361 88.25 22.7361H16.25Z" fill="#0F1559"/>
<path fill-rule="evenodd" clip-rule="evenodd" d="M89.25 51.7361C89.25 50.0792 90.5931 48.7361 92.25 48.7361H100.25C101.907 48.7361 103.25 50.0792 103.25 51.7361C103.25 53.3929 101.907 54.7361 100.25 54.7361H92.25C90.5931 54.7361 89.25 53.3929 89.25 51.7361Z" fill="#0F1559"/>
<path d="M20.1663 41.0707C21.4641 44.5314 26.3592 44.5314 27.657 41.0708L30.8172 32.6436C31.2228 31.5619 32.0763 30.7084 33.158 30.3028L41.5852 27.1426C45.0458 25.8448 45.0458 20.9497 41.5852 19.6519L33.158 16.4917C32.0763 16.0861 31.2228 15.2326 30.8172 14.1509L27.657 5.72375C26.3592 2.26308 21.4641 2.26307 20.1663 5.72375L17.0061 14.1509C16.6005 15.2326 15.747 16.0861 14.6653 16.4917L6.23816 19.6519C2.77748 20.9497 2.77748 25.8448 6.23815 27.1426L14.6653 30.3028C15.747 30.7084 16.6005 31.5619 17.0061 32.6436L20.1663 41.0707Z" fill="#44DC4E"/>
<path fill-rule="evenodd" clip-rule="evenodd" d="M22.9753 40.0174C23.2998 40.8826 24.5236 40.8825 24.848 40.0174L28.0082 31.5902C28.718 29.6973 30.2117 28.2036 32.1046 27.4938L40.5318 24.3336C41.397 24.0091 41.3969 22.7854 40.5318 22.4609L32.1046 19.3007C30.2117 18.5909 28.718 17.0973 28.0082 15.2043L24.848 6.77713C24.5235 5.91195 23.2998 5.91196 22.9753 6.77712L19.8151 15.2043C19.1053 17.0972 17.6117 18.5909 15.7187 19.3007L7.29153 22.4609C6.42635 22.7854 6.42637 24.0091 7.29152 24.3336L15.7187 27.4938C17.6117 28.2036 19.1053 29.6972 19.8151 31.5902L22.9753 40.0174ZM30.466 42.1241C28.1949 48.1803 19.6284 48.1803 17.3573 42.1241L14.1972 33.697C14.0958 33.4265 13.8824 33.2132 13.612 33.1117L5.18478 29.9516C-0.87141 27.6805 -0.871376 19.114 5.18479 16.8429L13.612 13.6828C13.8824 13.5814 14.0958 13.368 14.1972 13.0976L17.3574 4.67038C19.6284 -1.38581 28.1949 -1.38578 30.466 4.67039L33.6262 13.0976C33.7276 13.368 33.9409 13.5814 34.2114 13.6828L42.6385 16.8429C48.6947 19.114 48.6947 27.6805 42.6385 29.9516L34.2114 33.1117C33.9409 33.2132 33.7276 33.4265 33.6262 33.697L30.466 42.1241Z" fill="#0F1559"/>
</svg>
