<svg width="104" height="104" viewBox="0 0 104 104" fill="none" xmlns="http://www.w3.org/2000/svg">
<path opacity="0.2" d="M15.23 88.77C10.63 84.17 13.68 74.505 11.34 68.845C8.91 63 0 58.25 0 52C0 45.75 8.91 41 11.34 35.155C13.68 29.5 10.63 19.83 15.23 15.23C19.83 10.63 29.5 13.68 35.155 11.34C41.025 8.91 45.75 0 52 0C58.25 0 63 8.91 68.845 11.34C74.505 13.68 84.17 10.63 88.77 15.23C93.37 19.83 90.32 29.495 92.66 35.155C95.09 41.025 104 45.75 104 52C104 58.25 95.09 63 92.66 68.845C90.32 74.505 93.37 84.17 88.77 88.77C84.17 93.37 74.505 90.32 68.845 92.66C63 95.09 58.25 104 52 104C45.75 104 41 95.09 35.155 92.66C29.5 90.32 19.83 93.37 15.23 88.77Z" fill="#F4F6FD"/>
</svg>
