<svg width="128" height="128" viewBox="0 0 128 128" fill="none" xmlns="http://www.w3.org/2000/svg">
<g clip-path="url(#clip0_451_4709)">
<path opacity="0.2" d="M27.23 100.77C22.63 96.17 25.68 86.505 23.34 80.845C20.91 75 12 70.25 12 64C12 57.75 20.91 53 23.34 47.155C25.68 41.5 22.63 31.83 27.23 27.23C31.83 22.63 41.5 25.68 47.155 23.34C53.025 20.91 57.75 12 64 12C70.25 12 75 20.91 80.845 23.34C86.505 25.68 96.17 22.63 100.77 27.23C105.37 31.83 102.32 41.495 104.66 47.155C107.09 53.025 116 57.75 116 64C116 70.25 107.09 75 104.66 80.845C102.32 86.505 105.37 96.17 100.77 100.77C96.17 105.37 86.505 102.32 80.845 104.66C75 107.09 70.25 116 64 116C57.75 116 53 107.09 47.155 104.66C41.5 102.32 31.83 105.37 27.23 100.77Z" fill="#F4F6FD"/>
<path d="M27.23 100.77C22.63 96.17 25.68 86.505 23.34 80.845C20.91 75 12 70.25 12 64C12 57.75 20.91 53 23.34 47.155C25.68 41.5 22.63 31.83 27.23 27.23C31.83 22.63 41.5 25.68 47.155 23.34C53.025 20.91 57.75 12 64 12C70.25 12 75 20.91 80.845 23.34C86.505 25.68 96.17 22.63 100.77 27.23C105.37 31.83 102.32 41.495 104.66 47.155C107.09 53.025 116 57.75 116 64C116 70.25 107.09 75 104.66 80.845C102.32 86.505 105.37 96.17 100.77 100.77C96.17 105.37 86.505 102.32 80.845 104.66C75 107.09 70.25 116 64 116C57.75 116 53 107.09 47.155 104.66C41.5 102.32 31.83 105.37 27.23 100.77Z" stroke="#F4F6FD" stroke-width="8" stroke-linecap="round" stroke-linejoin="round"/>
<path d="M64 40V68" stroke="#F4F6FD" stroke-width="8" stroke-linecap="round" stroke-linejoin="round"/>
<path d="M64 92C67.3137 92 70 89.3137 70 86C70 82.6863 67.3137 80 64 80C60.6863 80 58 82.6863 58 86C58 89.3137 60.6863 92 64 92Z" fill="#F4F6FD"/>
</g>
<defs>
<clipPath id="clip0_451_4709">
<rect width="128" height="128" fill="white"/>
</clipPath>
</defs>
</svg>
