<svg width="32" height="32" viewBox="0 0 32 32" fill="none" xmlns="http://www.w3.org/2000/svg">
<g clip-path="url(#clip0_996_5138)">
<path opacity="0.2" d="M26 12H6C5.73478 12 5.48043 12.1054 5.29289 12.2929C5.10536 12.4804 5 12.7348 5 13V27C5 27.2652 5.10536 27.5196 5.29289 27.7071C5.48043 27.8946 5.73478 28 6 28H26C26.2652 28 26.5196 27.8946 26.7071 27.7071C26.8946 27.5196 27 27.2652 27 27V13C27 12.7348 26.8946 12.4804 26.7071 12.2929C26.5196 12.1054 26.2652 12 26 12ZM16 21C15.5055 21 15.0222 20.8534 14.6111 20.5787C14.2 20.304 13.8795 19.9135 13.6903 19.4567C13.5011 18.9999 13.4516 18.4972 13.548 18.0123C13.6445 17.5273 13.8826 17.0819 14.2322 16.7322C14.5819 16.3826 15.0273 16.1445 15.5123 16.048C15.9972 15.9516 16.4999 16.0011 16.9567 16.1903C17.4135 16.3795 17.804 16.7 18.0787 17.1111C18.3534 17.5222 18.5 18.0055 18.5 18.5C18.5 19.163 18.2366 19.7989 17.7678 20.2678C17.2989 20.7366 16.663 21 16 21Z" fill="#0F1559"/>
<path d="M26 12H6C5.44772 12 5 12.4477 5 13V27C5 27.5523 5.44772 28 6 28H26C26.5523 28 27 27.5523 27 27V13C27 12.4477 26.5523 12 26 12Z" stroke="#0F1559" stroke-width="3" stroke-linecap="round" stroke-linejoin="round"/>
<path d="M11 12V8C11 6.67392 11.5268 5.40215 12.4645 4.46447C13.4021 3.52678 14.6739 3 16 3C17.3261 3 18.5979 3.52678 19.5355 4.46447C20.4732 5.40215 21 6.67392 21 8V12" stroke="#0F1559" stroke-width="3" stroke-linecap="round" stroke-linejoin="round"/>
<path d="M16 21C17.3807 21 18.5 19.8807 18.5 18.5C18.5 17.1193 17.3807 16 16 16C14.6193 16 13.5 17.1193 13.5 18.5C13.5 19.8807 14.6193 21 16 21Z" stroke="#0F1559" stroke-width="3" stroke-linecap="round" stroke-linejoin="round"/>
<path d="M16 21V24" stroke="#0F1559" stroke-width="3" stroke-linecap="round" stroke-linejoin="round"/>
</g>
<defs>
<clipPath id="clip0_996_5138">
<rect width="32" height="32" fill="white"/>
</clipPath>
</defs>
</svg>
