<svg width="64" height="64" viewBox="0 0 64 64" fill="none" xmlns="http://www.w3.org/2000/svg">
<rect width="64" height="64" rx="16" fill="#F4F6FD"/>
<g clip-path="url(#clip0_365_389)">
<path opacity="0.2" d="M21.2861 25H43.9999L40.4349 36.5888C40.309 36.9976 40.0552 37.3553 39.711 37.6093C39.3668 37.8633 38.9502 38.0002 38.5224 38H26.5086C26.074 38.0002 25.6511 37.8588 25.304 37.5971C24.9568 37.3355 24.7044 36.9679 24.5849 36.55L21.2861 25Z" fill="#0F1559"/>
<path d="M26 45C27.1046 45 28 44.1046 28 43C28 41.8954 27.1046 41 26 41C24.8954 41 24 41.8954 24 43C24 44.1046 24.8954 45 26 45Z" fill="#0F1559"/>
<path d="M39 45C40.1046 45 41 44.1046 41 43C41 41.8954 40.1046 41 39 41C37.8954 41 37 41.8954 37 43C37 44.1046 37.8954 45 39 45Z" fill="#0F1559"/>
<path d="M21.2863 25H44L40.435 36.5888C40.3091 36.9976 40.0554 37.3553 39.7111 37.6093C39.3669 37.8633 38.9503 38.0002 38.5225 38H26.5087C26.0741 38.0002 25.6512 37.8588 25.3041 37.5971C24.957 37.3355 24.7045 36.9679 24.585 36.55L20.0637 20.725C20.004 20.5161 19.8779 20.3324 19.7045 20.2016C19.531 20.0708 19.3197 20 19.1025 20H17" stroke="#0F1559" stroke-width="3" stroke-linecap="round" stroke-linejoin="round"/>
</g>
<defs>
<clipPath id="clip0_365_389">
<rect width="32" height="32" fill="white" transform="translate(16 16)"/>
</clipPath>
</defs>
</svg>
