<svg width="32" height="32" viewBox="0 0 32 32" fill="none" xmlns="http://www.w3.org/2000/svg">
<g clip-path="url(#clip0_365_164)">
<path opacity="0.2" d="M5.28516 9H27.9989L24.4339 20.5888C24.308 20.9976 24.0543 21.3553 23.71 21.6093C23.3658 21.8633 22.9492 22.0002 22.5214 22H10.5077C10.073 22.0002 9.65009 21.8588 9.30298 21.5971C8.95587 21.3355 8.70344 20.9679 8.58391 20.55L5.28516 9Z" fill="#0F1559"/>
<path d="M10 29C11.1046 29 12 28.1046 12 27C12 25.8954 11.1046 25 10 25C8.89543 25 8 25.8954 8 27C8 28.1046 8.89543 29 10 29Z" fill="#0F1559"/>
<path d="M23 29C24.1046 29 25 28.1046 25 27C25 25.8954 24.1046 25 23 25C21.8954 25 21 25.8954 21 27C21 28.1046 21.8954 29 23 29Z" fill="#0F1559"/>
<path d="M5.28625 9H28L24.435 20.5888C24.3091 20.9976 24.0554 21.3553 23.7111 21.6093C23.3669 21.8633 22.9503 22.0002 22.5225 22H10.5087C10.0741 22.0002 9.65118 21.8588 9.30407 21.5971C8.95696 21.3355 8.70453 20.9679 8.585 20.55L4.06375 4.725C4.00401 4.51615 3.87789 4.33243 3.70446 4.20162C3.53103 4.07082 3.31973 4.00004 3.1025 4H1" stroke="#0F1559" stroke-width="3" stroke-linecap="round" stroke-linejoin="round"/>
</g>
<defs>
<clipPath id="clip0_365_164">
<rect width="32" height="32" fill="white"/>
</clipPath>
</defs>
</svg>
