<svg width="74" height="74" viewBox="0 0 129 129" fill="none" xmlns="http://www.w3.org/2000/svg">
<g clip-path="url(#clip0_299_972)">
<path d="M112.365 93.971C115.275 88.6342 116.786 82.6475 116.758 76.569C116.729 70.4906 115.162 64.5183 112.202 59.2089C109.243 53.8996 104.987 49.4261 99.8317 46.2056C94.6764 42.9851 88.7897 41.1223 82.7202 40.791C84.6298 46.2201 85.2099 52.028 84.4119 57.7276C83.6139 63.4271 81.4611 68.8523 78.1339 73.5483C74.8068 78.2442 70.4022 82.0741 65.2896 84.7166C60.177 87.3592 54.5053 88.7375 48.7502 88.736C48.0902 88.736 47.4352 88.736 46.7852 88.681C48.5182 93.6007 51.2989 98.0855 54.9351 101.825C58.5712 105.565 62.9761 108.47 67.8453 110.341C72.7144 112.211 77.9316 113.002 83.1364 112.658C88.3411 112.315 93.4091 110.845 97.9902 108.351L112.925 112.616C113.44 112.763 113.984 112.77 114.503 112.636C115.021 112.502 115.494 112.232 115.872 111.853C116.251 111.475 116.521 111.002 116.655 110.484C116.79 109.965 116.783 109.421 116.635 108.906L112.365 93.971Z" fill="#B5B6CC"/>
<path fill-rule="evenodd" clip-rule="evenodd" d="M51.1046 19.8263C43.1885 19.2586 35.3331 21.5628 28.9779 26.3165C22.6228 31.0702 18.1936 37.955 16.5023 45.709C14.811 53.4631 15.9707 61.5669 19.769 68.5353C20.1457 69.2265 20.2357 70.038 20.0196 70.7949L15.7539 85.732L15.7561 85.7314L30.6911 81.4664C31.448 81.2503 32.2595 81.3403 32.9507 81.717C39.9191 85.5153 48.0229 86.675 55.7769 84.9837C63.531 83.2923 70.4158 78.8632 75.1695 72.508C79.9232 66.1529 82.2273 58.2974 81.6597 50.3814C81.092 42.4654 77.6906 35.0191 72.0787 29.4072C66.4669 23.7954 59.0206 20.3939 51.1046 19.8263ZM25.3841 21.5119C32.8947 15.8939 42.1784 13.1708 51.5337 13.8416C60.889 14.5125 69.6892 18.5324 76.3214 25.1646C82.9536 31.7968 86.9735 40.597 87.6443 49.9523C88.3152 59.3076 85.5921 68.5913 79.9741 76.1019C74.356 83.6125 66.2195 88.847 57.0556 90.8458C48.2991 92.7559 39.165 91.5893 31.185 87.5652L17.4058 91.5002C17.4051 91.5004 17.4044 91.5006 17.4037 91.5008C16.3751 91.7949 15.2865 91.8087 14.2507 91.5407C13.2142 91.2724 12.2684 90.7317 11.5113 89.9747C10.7542 89.2176 10.2136 88.2718 9.94531 87.2353C9.67726 86.1995 9.69103 85.1109 9.9852 84.0823C9.9854 84.0816 9.98561 84.0809 9.98581 84.0802L13.9207 70.301C9.89671 62.321 8.73012 53.1869 10.6401 44.4303C12.639 35.2665 17.8734 27.1299 25.3841 21.5119Z" fill="#0F1559"/>
<path fill-rule="evenodd" clip-rule="evenodd" d="M79.7246 40.6276C79.8149 38.9732 81.2292 37.7053 82.8836 37.7956C89.4589 38.1545 95.8363 40.1724 101.421 43.6614C107.006 47.1503 111.617 51.9965 114.823 57.7483C118.029 63.5001 119.727 69.9701 119.758 76.5551C119.786 82.7233 118.352 88.8044 115.579 94.3012L119.514 108.08C119.514 108.081 119.515 108.082 119.515 108.082C119.809 109.111 119.823 110.2 119.555 111.235C119.286 112.272 118.746 113.218 117.989 113.975C117.232 114.732 116.286 115.272 115.249 115.541C114.214 115.809 113.125 115.795 112.096 115.501C112.096 115.501 112.095 115.5 112.094 115.5L98.3143 111.565C93.6473 113.916 88.5516 115.307 83.3289 115.652C77.6908 116.024 72.0391 115.168 66.7644 113.141C61.4898 111.115 56.7181 107.968 52.7791 103.917C48.8402 99.8654 45.8279 95.0073 43.9505 89.6778C43.4001 88.1151 44.2206 86.402 45.7834 85.8515C47.3461 85.301 49.0592 86.1216 49.6097 87.6843C51.1984 92.1944 53.7475 96.3056 57.0809 99.7339C60.4143 103.162 64.4523 105.826 68.916 107.54C73.3797 109.255 78.1624 109.98 82.9337 109.665C87.705 109.35 92.351 108.003 96.5506 105.716C97.2415 105.34 98.0525 105.25 98.8089 105.466L113.744 109.731L113.746 109.732L113.745 109.73L109.48 94.7949C109.264 94.0379 109.354 93.2262 109.731 92.535C112.399 87.6429 113.784 82.1551 113.758 76.5832C113.732 71.0112 112.295 65.5366 109.582 60.6697C106.869 55.8029 102.968 51.7022 98.2422 48.75C93.5165 45.7978 88.1203 44.0903 82.5566 43.7866C80.9022 43.6963 79.6343 42.282 79.7246 40.6276Z" fill="#0F1559"/>
<path d="M88.6663 58.0707C89.9641 61.5314 94.8592 61.5314 96.157 58.0708L99.3172 49.6436C99.7228 48.5619 100.576 47.7084 101.658 47.3028L110.085 44.1426C113.546 42.8448 113.546 37.9497 110.085 36.6519L101.658 33.4917C100.576 33.0861 99.7228 32.2326 99.3172 31.1509L96.157 22.7238C94.8592 19.2631 89.9641 19.2631 88.6663 22.7237L85.5061 31.1509C85.1005 32.2326 84.247 33.0861 83.1653 33.4917L74.7382 36.6519C71.2775 37.9497 71.2775 42.8448 74.7382 44.1426L83.1653 47.3028C84.247 47.7084 85.1005 48.5619 85.5061 49.6436L88.6663 58.0707Z" fill="#E82962"/>
<path fill-rule="evenodd" clip-rule="evenodd" d="M91.4753 57.0174C91.7998 57.8826 93.0236 57.8825 93.348 57.0174L96.5082 48.5902C97.218 46.6973 98.7117 45.2036 100.605 44.4938L109.032 41.3336C109.897 41.0091 109.897 39.7854 109.032 39.4609L100.605 36.3007C98.7117 35.5909 97.218 34.0973 96.5082 32.2043L93.348 23.7771C93.0235 22.9119 91.7998 22.912 91.4753 23.7771L88.3151 32.2043C87.6053 34.0972 86.1117 35.5909 84.2187 36.3007L75.7915 39.4609C74.9263 39.7854 74.9264 41.0091 75.7915 41.3336L84.2187 44.4938C86.1117 45.2036 87.6053 46.6972 88.3151 48.5902L91.4753 57.0174ZM98.966 59.1241C96.6949 65.1803 88.1284 65.1803 85.8573 59.1241L82.6972 50.697C82.5958 50.4265 82.3824 50.2132 82.112 50.1117L73.6848 46.9516C67.6286 44.6805 67.6286 36.114 73.6848 33.8429L82.112 30.6828C82.3824 30.5814 82.5958 30.368 82.6972 30.0976L85.8574 21.6704C88.1284 15.6142 96.6949 15.6142 98.966 21.6704L102.126 30.0976C102.228 30.368 102.441 30.5814 102.711 30.6828L111.139 33.8429C117.195 36.114 117.195 44.6805 111.139 46.9516L102.711 50.1117C102.441 50.2132 102.228 50.4265 102.126 50.697L98.966 59.1241Z" fill="#0F1559"/>
</g>
<defs>
<clipPath id="clip0_299_972">
<rect width="128" height="128" fill="white" transform="translate(0.75 0.736084)"/>
</clipPath>
</defs>
</svg>
