<svg width="727" height="510" viewBox="0 0 727 510" fill="none" xmlns="http://www.w3.org/2000/svg">
<path d="M378.51 13.8391C383.455 10.9887 389.545 10.9887 394.49 13.8391L592.99 128.252C597.946 131.109 601 136.394 601 142.114V370.872C601 376.592 597.946 381.877 592.99 384.734L394.49 499.147C389.545 501.997 383.455 501.997 378.51 499.147L180.01 384.734C175.054 381.877 172 376.592 172 370.872V142.114C172 136.394 175.054 131.109 180.01 128.252L378.51 13.8391Z" stroke="#F4F6FD" stroke-width="16"/>
<path d="M671.745 26.1318C670.448 22.6711 665.552 22.6711 664.255 26.1318L654.729 51.5328C654.324 52.6145 653.47 53.468 652.388 53.8736L626.987 63.399C623.527 64.6967 623.527 69.5919 626.988 70.8896L652.388 80.415C653.47 80.8206 654.324 81.6741 654.729 82.7558L664.255 108.157C665.552 111.617 670.448 111.617 671.745 108.157L681.271 82.7558C681.676 81.6741 682.53 80.8206 683.611 80.415L709.012 70.8896C712.473 69.5919 712.473 64.6968 709.012 63.399L683.611 53.8736C682.53 53.468 681.676 52.6145 681.271 51.5328L671.745 26.1318Z" fill="#F5BB2C"/>
<rect x="632" y="0.144302" width="16" height="16" rx="4" fill="#F5BB2C"/>
<rect x="711" y="91.1443" width="16" height="16" rx="4" fill="#F5BB2C"/>
<rect x="609" y="28.1443" width="16" height="16" rx="4" fill="#F5BB2C"/>
<path d="M25.9875 169.399C22.5268 170.697 22.5268 175.592 25.9875 176.89L51.3885 186.415C52.4702 186.821 53.3237 187.674 53.7293 188.756L63.2547 214.157C64.5524 217.618 69.4476 217.618 70.7453 214.157L80.2707 188.756C80.6763 187.674 81.5298 186.821 82.6115 186.415L108.012 176.89C111.473 175.592 111.473 170.697 108.012 169.399L82.6115 159.874C81.5298 159.468 80.6763 158.615 80.2707 157.533L70.7453 132.132C69.4476 128.671 64.5524 128.671 63.2547 132.132L53.7293 157.533C53.3237 158.615 52.4702 159.468 51.3885 159.874L25.9875 169.399Z" fill="#F5BB2C"/>
<rect y="209.145" width="16" height="16" rx="4" transform="rotate(-90 0 209.145)" fill="#F5BB2C"/>
<rect x="91" y="130.145" width="16" height="16" rx="4" transform="rotate(-90 91 130.145)" fill="#F5BB2C"/>
<rect x="28" y="232.145" width="16" height="16" rx="4" transform="rotate(-90 28 232.145)" fill="#F5BB2C"/>
</svg>
