<svg width="273" height="50" viewBox="0 0 273 50" fill="none" xmlns="http://www.w3.org/2000/svg">
<path fill-rule="evenodd" clip-rule="evenodd" d="M0 13.3037C0 13.0699 0.12 12.8526 0.317792 12.728L20.1689 0.227913C20.3904 0.0884172 20.6723 0.0884171 20.8939 0.227913L40.745 12.728C40.9428 12.8526 41.0628 13.0699 41.0628 13.3037V36.6963C41.0628 36.93 40.9428 37.1474 40.745 37.272L20.8939 49.7721C20.6723 49.9116 20.3904 49.9116 20.1689 49.7721L0.317792 37.272C0.12 37.1474 0 36.93 0 36.6963V13.3037ZM20.1689 23.7025C20.3904 23.842 20.6723 23.842 20.8939 23.7025L35.7494 14.348C36.1731 14.0812 36.1731 13.4635 35.7494 13.1967L23.1056 5.2349C22.6526 4.94964 22.0628 5.27521 22.0628 5.81056V9.90054C22.0628 10.1434 22.1959 10.3632 22.3893 10.5102C23.1404 11.0809 23.6253 11.9838 23.6253 12.9999C23.6253 14.7258 22.2262 16.1249 20.5003 16.1249C18.7744 16.1249 17.3752 14.7258 17.3752 12.9999C17.3752 11.9618 17.8814 11.0419 18.6604 10.4736C18.8611 10.3272 19.0003 10.1033 19.0003 9.85484V5.81036C19.0003 5.27501 18.4105 4.94944 17.9575 5.2347L5.31335 13.1967C4.88963 13.4635 4.88963 14.0812 5.31335 14.348L20.1689 23.7025ZM20.5314 3.62475C20.5364 3.62475 20.5382 3.61824 20.534 3.61559C20.5324 3.61457 20.5304 3.61457 20.5287 3.61559C20.5245 3.61824 20.5264 3.62475 20.5314 3.62475ZM19.0022 26.9576C19.0022 26.7239 18.8822 26.5065 18.6844 26.382L4.10122 17.1991C3.6482 16.9139 3.05845 17.2394 3.05845 17.7748V32.3125C3.05845 32.8468 3.64612 33.1725 4.09923 32.8894L7.52518 30.7486C7.73111 30.6199 7.84704 30.3905 7.86917 30.1487C7.95518 29.2093 8.46385 28.3196 9.32557 27.7811C10.7892 26.8665 12.7172 27.3116 13.6318 28.7753C14.5464 30.2389 14.1013 32.1669 12.6376 33.0815C11.7573 33.6316 10.7089 33.6898 9.81415 33.3303C9.58363 33.2377 9.32001 33.2384 9.10933 33.37L5.38705 35.696C4.96154 35.9618 4.96047 36.5812 5.38505 36.8485L17.9594 44.7665C18.4124 45.0518 19.0022 44.7262 19.0022 44.1909V26.9576ZM22.3784 26.3821C22.1806 26.5066 22.0606 26.724 22.0606 26.9577V44.191C22.0606 44.7263 22.6504 45.0519 23.1034 44.7666L35.6655 36.8563C36.0901 36.5889 36.0891 35.9696 35.6635 35.7037L31.9288 33.37C31.7182 33.2384 31.4545 33.2377 31.224 33.3303C30.3293 33.6898 29.2809 33.6316 28.4006 33.0815C26.9369 32.1669 26.4918 30.2389 27.4064 28.7753C28.321 27.3116 30.2489 26.8665 31.7126 27.7811C32.5743 28.3196 33.083 29.2093 33.169 30.1487C33.1911 30.3905 33.3071 30.6199 33.513 30.7486L36.9635 32.9047C37.4166 33.1879 38.0043 32.8621 38.0043 32.3278V17.7748C38.0043 17.2394 37.4146 16.9139 36.9615 17.1991L22.3784 26.3821Z" fill="#F4F6FD"/>
<path d="M63.1648 28.2058C59.6739 28.2058 57.8575 25.8502 57.8575 22.6147C57.8575 19.436 59.6739 17.0236 63.1648 17.0236C64.5554 17.0236 66.3718 17.6196 67.3084 18.0453C67.9612 18.3291 68.3018 18.1872 68.5288 17.6196L69.3803 15.5194C69.6073 14.9802 69.5505 14.6963 69.21 14.4693C67.3936 13.3624 65.1514 12.7664 63.1648 12.7664C57.4601 12.7664 53.7422 16.683 53.7422 22.6147C53.7422 28.6031 57.4601 32.463 63.108 32.463C65.1231 32.463 67.3652 31.867 69.21 30.7601C69.5505 30.5331 69.6073 30.2493 69.3803 29.71L68.5288 27.6098C68.3018 27.0422 67.9612 26.9003 67.3084 27.1841C66.3718 27.6098 64.5554 28.2058 63.1648 28.2058Z" fill="#F4F6FD"/>
<path d="M77.4064 38.0825C81.1243 38.0825 84.0476 36.3228 84.0476 31.867V19.0671C84.0476 18.3008 83.6786 17.9318 82.9123 17.9318H81.2095C80.4432 17.9318 80.0742 18.3008 80.0742 19.0671V24.0054C80.0742 26.6165 78.8538 27.7801 76.9807 27.7801C75.6184 27.7801 74.7953 26.7867 74.7953 24.7149V18.4994C74.7953 17.7331 74.4263 17.3642 73.6601 17.3642H71.9572C71.1909 17.3642 70.8219 17.7331 70.8219 18.4994V25.9921C70.8219 30.1074 72.8654 31.8954 75.6184 31.8954C77.2077 31.8954 78.9957 31.1007 80.0742 29.4262V31.4697C80.0742 33.3996 78.9106 33.9672 77.3496 33.9672C76.0157 33.9672 74.4264 33.3712 73.3479 32.7752C72.837 32.463 72.6099 32.7752 72.2978 33.5699L71.6166 35.2727C71.4179 35.7552 71.276 36.0958 71.7301 36.4648C73.1776 37.6284 75.4481 38.0825 77.4064 38.0825Z" fill="#F4F6FD"/>
<path d="M89.4351 32.69C90.2014 32.69 90.5704 32.3211 90.5704 31.5832C91.5637 31.9238 92.6138 32.1224 93.6923 32.1224C97.2968 32.1224 100.163 29.6533 100.504 25.6799C100.532 25.3961 100.532 25.1406 100.532 24.8568C100.532 20.4577 97.836 17.5912 94.5438 17.5912C92.9828 17.5912 91.5637 18.1589 90.5704 19.209V12.8232C90.5704 12.5677 90.542 12.3691 90.4569 12.1988C90.2866 11.8582 89.946 11.6879 89.4351 11.6879H87.7323C87.2214 11.6879 86.8808 11.8582 86.7106 12.1988C86.6254 12.3691 86.597 12.5677 86.597 12.8232V31.5548C86.597 32.0657 86.7673 32.4062 87.1079 32.5765C87.2782 32.6617 87.4768 32.69 87.7323 32.69H89.4351ZM93.4085 28.0355C92.3017 28.0355 91.4218 27.8369 90.5704 27.4679V25.4812C90.5704 25.0555 90.5988 24.6298 90.6839 24.2608C91.0245 22.6147 92.103 21.7065 93.7207 21.7065C95.452 21.7065 96.5588 23.012 96.5588 24.8568C96.5588 26.9854 95.2249 28.0355 93.4085 28.0355Z" fill="#F4F6FD"/>
<path d="M109.15 32.463C110.966 32.463 113.067 31.867 114.457 30.7601C114.911 30.3912 114.769 30.1074 114.571 29.5681L114.003 28.0923C113.804 27.553 113.379 27.326 112.953 27.5814C111.988 28.1207 110.768 28.7734 109.689 28.7734C107.759 28.7734 106.51 27.8936 105.943 26.6448L113.861 25.7366C114.855 25.6231 114.968 25.1406 114.968 24.0054C114.968 20.0604 112.499 17.5912 108.838 17.5912C104.126 17.5912 101.714 20.9686 101.714 25.0271C101.714 29.4262 104.637 32.463 109.15 32.463ZM108.554 21.2808C109.774 21.2808 110.626 21.9619 110.881 22.9837L105.773 23.5797C106.113 21.9336 107.078 21.2808 108.554 21.2808Z" fill="#F4F6FD"/>
<path d="M120.67 30.9872V25.4812C120.67 23.1823 121.862 21.9903 123.423 21.9903C123.906 21.9903 124.445 22.0471 125.239 22.2174C125.722 22.3309 125.977 22.189 126.006 21.7633L126.29 18.4994C126.318 18.3008 126.261 18.1021 126.034 17.9602C125.665 17.7331 125.012 17.5912 124.388 17.5912C123.054 17.5912 121.607 18.471 120.67 20.0036V17.648C120.67 16.8817 120.301 16.5127 119.535 16.5127H117.832C117.066 16.5127 116.697 16.8817 116.697 17.648V30.9872C116.697 31.7535 117.066 32.1224 117.832 32.1224H119.535C120.301 32.1224 120.67 31.7535 120.67 30.9872Z" fill="#F4F6FD"/>
<path d="M134.366 22.5863H128.122C127.356 22.5863 126.987 22.9553 126.987 23.7216V25.1406C126.987 25.9069 127.356 26.2759 128.122 26.2759H134.366C135.132 26.2759 135.501 25.9069 135.501 25.1406V23.7216C135.501 22.9553 135.132 22.5863 134.366 22.5863Z" fill="#F4F6FD"/>
<path d="M146.147 28.2058C142.656 28.2058 140.839 25.8502 140.839 22.6147C140.839 19.436 142.656 17.0236 146.147 17.0236C147.537 17.0236 149.354 17.6196 150.29 18.0453C150.943 18.3291 151.284 18.1872 151.511 17.6196L152.362 15.5194C152.589 14.9802 152.532 14.6963 152.192 14.4693C150.375 13.3624 148.133 12.7664 146.147 12.7664C140.442 12.7664 136.724 16.683 136.724 22.6147C136.724 28.6031 140.442 32.463 146.09 32.463C148.105 32.463 150.347 31.867 152.192 30.7601C152.532 30.5331 152.589 30.2493 152.362 29.71L151.511 27.6098C151.284 27.0422 150.943 26.9003 150.29 27.1841C149.354 27.6098 147.537 28.2058 146.147 28.2058Z" fill="#F4F6FD"/>
<path d="M158.364 30.9872V25.4812C158.364 22.8701 159.584 21.7065 161.457 21.7065C162.82 21.7065 163.643 22.6998 163.643 24.7717V31.5548C163.643 32.3211 164.012 32.69 164.778 32.69H166.481C167.247 32.69 167.616 32.3211 167.616 31.5548V23.4945C167.616 19.3792 165.573 17.5912 162.82 17.5912C161.23 17.5912 159.442 18.3859 158.364 20.0604V13.3908C158.364 12.6245 157.995 12.2556 157.229 12.2556H155.526C154.759 12.2556 154.39 12.6245 154.39 13.3908V30.9872C154.39 31.7535 154.759 32.1224 155.526 32.1224H157.229C157.995 32.1224 158.364 31.7535 158.364 30.9872Z" fill="#F4F6FD"/>
<path d="M181.206 32.9739C181.575 32.9739 181.83 32.8603 181.972 32.6049C182.029 32.463 182.057 32.3211 182.057 32.1224V23.8067C182.057 19.7766 179.56 17.3074 175.586 17.3074C173.429 17.3074 171.358 17.9602 170.024 19.0103C169.711 19.2373 169.655 19.4644 169.712 19.7482C169.768 19.8901 169.825 20.032 169.91 20.2023L170.336 21.0254L170.733 21.8484C171.017 22.3877 171.358 22.6147 171.783 22.3593C172.89 21.6781 174.082 21.2808 175.132 21.2808C176.665 21.2808 177.687 21.9903 177.999 23.3526C178.027 23.5229 178.056 23.6932 178.084 23.8919C177.005 23.4378 175.785 23.1539 174.707 23.1539C170.762 23.1539 169.201 25.3109 169.201 27.7801C169.201 30.4479 171.216 32.463 174.139 32.463C174.281 32.463 174.451 32.463 174.621 32.4346C175.87 32.3211 177.204 31.7535 178.084 30.902V32.1224C178.084 32.69 178.368 32.9739 178.935 32.9739H181.206ZM175.132 28.9153C174.082 28.9153 173.174 28.4612 173.174 27.6666C173.174 26.8435 173.827 26.4178 175.132 26.4178C176.041 26.4178 177.119 26.6165 178.084 26.9854V27.0989C178.084 27.2692 178.056 27.4395 177.97 27.6098C177.601 28.4612 176.296 28.9153 175.132 28.9153Z" fill="#F4F6FD"/>
<path d="M197.179 31.5548V25.8218C197.179 23.1823 197.974 22.0187 199.847 22.0187C201.209 22.0187 202.032 23.012 202.032 25.1123V30.9872C202.032 31.7535 202.401 32.1224 203.168 32.1224H204.871C205.637 32.1224 206.006 31.7535 206.006 30.9872V23.8351C206.006 19.7198 203.962 17.9318 201.209 17.9318C199.421 17.9318 197.718 18.7549 196.725 20.5429C195.959 18.4994 194.341 17.5912 192.383 17.5912C190.85 17.5912 189.318 18.3575 188.353 19.9185V17.9318C188.353 17.1655 187.984 16.7966 187.217 16.7966H185.515C184.748 16.7966 184.379 17.1655 184.379 17.9318V30.9872C184.379 31.7535 184.748 32.1224 185.515 32.1224H187.217C187.984 32.1224 188.353 31.7535 188.353 30.9872V25.4812C188.353 22.8418 189.147 21.6781 191.02 21.6781C192.383 21.6781 193.206 22.6715 193.206 24.7717V31.5548C193.206 32.3211 193.575 32.69 194.341 32.69H196.044C196.81 32.69 197.179 32.3211 197.179 31.5548Z" fill="#F4F6FD"/>
<path d="M212.327 36.9472V32.1224C213.264 32.3495 214.2 32.463 215.165 32.463C219.167 32.463 222.289 29.6533 222.289 25.1974C222.289 20.7983 219.593 17.9318 216.3 17.9318C214.739 17.9318 213.32 18.4994 212.327 19.5495V18.4994C212.327 17.7331 211.958 17.3642 211.192 17.3642H209.489C208.723 17.3642 208.354 17.7331 208.354 18.4994V36.9472C208.354 37.7135 208.723 38.0825 209.489 38.0825H211.192C211.958 38.0825 212.327 37.7135 212.327 36.9472ZM215.165 28.3761C214.087 28.3761 213.178 28.2342 212.327 27.9504V25.8218C212.327 23.4094 213.491 22.0471 215.477 22.0471C217.209 22.0471 218.315 23.3526 218.315 25.1974C218.315 27.326 216.982 28.3761 215.165 28.3761Z" fill="#F4F6FD"/>
<path d="M226.139 16.5411C227.444 16.5411 228.551 15.4343 228.551 14.1003C228.551 12.7948 227.444 11.6879 226.139 11.6879C224.833 11.6879 223.726 12.7948 223.726 14.1003C223.726 15.4343 224.833 16.5411 226.139 16.5411ZM228.125 30.9872V19.6347C228.125 18.8684 227.756 18.4994 226.99 18.4994H225.287C224.521 18.4994 224.152 18.8684 224.152 19.6347V30.9872C224.152 31.7535 224.521 32.1224 225.287 32.1224H226.99C227.756 32.1224 228.125 31.7535 228.125 30.9872Z" fill="#F4F6FD"/>
<path d="M237.135 32.463C241.563 32.463 244.259 29.2843 244.259 25.0271C244.259 20.7699 241.563 17.5912 237.135 17.5912C232.708 17.5912 230.012 20.7699 230.012 25.0271C230.012 29.2843 232.708 32.463 237.135 32.463ZM237.135 28.3477C235.404 28.3477 233.985 27.4395 233.985 25.0271C233.985 22.6147 235.404 21.7065 237.135 21.7065C238.867 21.7065 240.286 22.6147 240.286 25.0271C240.286 27.4395 238.867 28.3477 237.135 28.3477Z" fill="#F4F6FD"/>
<path d="M250.104 31.5548V25.4812C250.104 22.8701 251.324 21.7065 253.198 21.7065C254.56 21.7065 255.383 22.6998 255.383 24.7717V30.9872C255.383 31.7535 255.752 32.1224 256.518 32.1224H258.221C258.987 32.1224 259.356 31.7535 259.356 30.9872V23.4945C259.356 19.3792 257.313 17.5912 254.56 17.5912C252.971 17.5912 251.183 18.3859 250.104 20.0604V17.9318C250.104 17.1655 249.735 16.7966 248.969 16.7966H247.266C246.5 16.7966 246.131 17.1655 246.131 17.9318V31.5548C246.131 32.3211 246.5 32.69 247.266 32.69H248.969C249.735 32.69 250.104 32.3211 250.104 31.5548Z" fill="#F4F6FD"/>
<path d="M261.31 22.1606C261.31 27.4679 268.235 25.9069 268.235 27.9504C268.235 28.518 267.667 28.7167 266.731 28.7167C265.312 28.7167 263.807 28.149 262.871 27.6382C262.445 27.3828 261.991 27.6666 261.821 28.149L261.253 29.7384C261.083 30.1925 260.912 30.5615 261.367 30.9304C262.7 32.0089 264.659 32.463 266.504 32.463C269.143 32.463 272.066 31.1575 272.066 27.4679C272.066 22.3309 265.141 24.0054 265.141 21.9619C265.141 21.4511 265.51 21.1956 266.248 21.1956C267.412 21.1956 268.433 21.5362 269.796 22.0755C270.221 22.2458 270.647 22.0471 270.846 21.5646L271.442 20.0888C271.641 19.6347 271.782 19.2373 271.328 18.8968C270.108 17.9886 268.15 17.5912 266.645 17.5912C263.296 17.5912 261.31 19.5495 261.31 22.1606Z" fill="#F4F6FD"/>
</svg>
