<svg width="273" height="51" viewBox="0 0 273 51" fill="none" xmlns="http://www.w3.org/2000/svg">
<path fill-rule="evenodd" clip-rule="evenodd" d="M0 13.6667C0 13.433 0.12 13.2156 0.317792 13.0911L20.1689 0.59095C20.3904 0.451454 20.6723 0.451454 20.8939 0.59095L40.745 13.0911C40.9428 13.2156 41.0628 13.433 41.0628 13.6667V37.0593C41.0628 37.2931 40.9428 37.5104 40.745 37.635L20.8939 50.1351C20.6723 50.2746 20.3904 50.2746 20.1689 50.1351L0.317792 37.635C0.12 37.5104 0 37.2931 0 37.0593V13.6667ZM20.1689 24.0656C20.3904 24.2051 20.6723 24.2051 20.8939 24.0656L35.7494 14.7111C36.1731 14.4442 36.1731 13.8266 35.7494 13.5597L23.1056 5.59794C22.6526 5.31268 22.0628 5.63825 22.0628 6.1736V10.2636C22.0628 10.5064 22.1959 10.7263 22.3893 10.8732C23.1404 11.444 23.6253 12.3468 23.6253 13.3629C23.6253 15.0888 22.2262 16.488 20.5003 16.488C18.7744 16.488 17.3752 15.0888 17.3752 13.3629C17.3752 12.3248 17.8814 11.4049 18.6604 10.8366C18.8611 10.6902 19.0003 10.4663 19.0003 10.2179V6.1734C19.0003 5.63805 18.4105 5.31248 17.9575 5.59774L5.31335 13.5597C4.88963 13.8266 4.88963 14.4442 5.31335 14.7111L20.1689 24.0656ZM20.5314 3.98778C20.5364 3.98778 20.5382 3.98128 20.534 3.97863C20.5324 3.97761 20.5304 3.97761 20.5287 3.97863C20.5245 3.98128 20.5264 3.98778 20.5314 3.98778ZM19.0022 27.3207C19.0022 27.0869 18.8822 26.8695 18.6844 26.745L4.10122 17.5622C3.6482 17.2769 3.05845 17.6025 3.05845 18.1378V32.6755C3.05845 33.2098 3.64612 33.5356 4.09923 33.2524L7.52518 31.1117C7.73111 30.983 7.84704 30.7536 7.86917 30.5117C7.95518 29.5723 8.46385 28.6826 9.32557 28.1441C10.7892 27.2296 12.7172 27.6747 13.6318 29.1383C14.5464 30.602 14.1013 32.5299 12.6376 33.4445C11.7573 33.9946 10.7089 34.0528 9.81415 33.6934C9.58363 33.6008 9.32001 33.6014 9.10933 33.7331L5.38705 36.059C4.96154 36.3249 4.96047 36.9442 5.38505 37.2116L17.9594 45.1296C18.4124 45.4148 19.0022 45.0892 19.0022 44.5539V27.3207ZM22.3784 26.7451C22.1806 26.8696 22.0606 27.087 22.0606 27.3208V44.554C22.0606 45.0893 22.6504 45.4149 23.1034 45.1297L35.6655 37.2193C36.0901 36.952 36.0891 36.3326 35.6635 36.0668L31.9288 33.7331C31.7182 33.6014 31.4545 33.6008 31.224 33.6934C30.3293 34.0528 29.2809 33.9946 28.4006 33.4445C26.9369 32.5299 26.4918 30.602 27.4064 29.1383C28.321 27.6747 30.2489 27.2296 31.7126 28.1441C32.5743 28.6826 33.083 29.5723 33.169 30.5117C33.1911 30.7536 33.3071 30.983 33.513 31.1117L36.9635 33.2678C37.4166 33.5509 38.0043 33.2252 38.0043 32.6909V18.1378C38.0043 17.6025 37.4146 17.2769 36.9615 17.5622L22.3784 26.7451Z" fill="#0F1559"/>
<path d="M63.1648 28.5687C59.6739 28.5687 57.8575 26.213 57.8575 22.9776C57.8575 19.7989 59.6739 17.3865 63.1648 17.3865C64.5554 17.3865 66.3718 17.9825 67.3084 18.4082C67.9612 18.692 68.3018 18.5501 68.5288 17.9825L69.3803 15.8822C69.6073 15.343 69.5505 15.0592 69.21 14.8321C67.3936 13.7253 65.1514 13.1293 63.1648 13.1293C57.4601 13.1293 53.7422 17.0459 53.7422 22.9776C53.7422 28.966 57.4601 32.8259 63.108 32.8259C65.1231 32.8259 67.3652 32.2298 69.21 31.123C69.5505 30.8959 69.6073 30.6121 69.3803 30.0729L68.5288 27.9727C68.3018 27.405 67.9612 27.2631 67.3084 27.5469C66.3718 27.9727 64.5554 28.5687 63.1648 28.5687Z" fill="#0F1559"/>
<path d="M77.4064 38.4453C81.1243 38.4453 84.0476 36.6857 84.0476 32.2298V19.4299C84.0476 18.6636 83.6786 18.2947 82.9123 18.2947H81.2095C80.4432 18.2947 80.0742 18.6636 80.0742 19.4299V24.3682C80.0742 26.9793 78.8538 28.1429 76.9807 28.1429C75.6184 28.1429 74.7953 27.1496 74.7953 25.0778V18.8623C74.7953 18.096 74.4263 17.727 73.6601 17.727H71.9572C71.1909 17.727 70.8219 18.096 70.8219 18.8623V26.3549C70.8219 30.4702 72.8654 32.2582 75.6184 32.2582C77.2077 32.2582 78.9957 31.4636 80.0742 29.7891V31.8325C80.0742 33.7624 78.9106 34.3301 77.3496 34.3301C76.0157 34.3301 74.4264 33.7341 73.3479 33.138C72.837 32.8259 72.6099 33.138 72.2978 33.9327L71.6166 35.6356C71.4179 36.1181 71.276 36.4587 71.7301 36.8276C73.1776 37.9912 75.4481 38.4453 77.4064 38.4453Z" fill="#0F1559"/>
<path d="M89.4351 33.0529C90.2014 33.0529 90.5704 32.6839 90.5704 31.946C91.5637 32.2866 92.6138 32.4853 93.6923 32.4853C97.2968 32.4853 100.163 30.0161 100.504 26.0427C100.532 25.7589 100.532 25.5035 100.532 25.2197C100.532 20.8206 97.836 17.9541 94.5438 17.9541C92.9828 17.9541 91.5637 18.5217 90.5704 19.5718V13.186C90.5704 12.9306 90.542 12.7319 90.4569 12.5616C90.2866 12.2211 89.946 12.0508 89.4351 12.0508H87.7323C87.2214 12.0508 86.8808 12.2211 86.7106 12.5616C86.6254 12.7319 86.597 12.9306 86.597 13.186V31.9177C86.597 32.4285 86.7673 32.7691 87.1079 32.9394C87.2782 33.0245 87.4768 33.0529 87.7323 33.0529H89.4351ZM93.4085 28.3984C92.3017 28.3984 91.4218 28.1997 90.5704 27.8308V25.8441C90.5704 25.4183 90.5988 24.9926 90.6839 24.6237C91.0245 22.9776 92.103 22.0694 93.7207 22.0694C95.452 22.0694 96.5588 23.3749 96.5588 25.2197C96.5588 27.3483 95.2249 28.3984 93.4085 28.3984Z" fill="#0F1559"/>
<path d="M109.15 32.8259C110.966 32.8259 113.067 32.2298 114.457 31.123C114.911 30.754 114.769 30.4702 114.571 29.931L114.003 28.4551C113.804 27.9159 113.379 27.6888 112.953 27.9443C111.988 28.4835 110.768 29.1363 109.689 29.1363C107.759 29.1363 106.51 28.2565 105.943 27.0077L113.861 26.0995C114.855 25.986 114.968 25.5035 114.968 24.3682C114.968 20.4232 112.499 17.9541 108.838 17.9541C104.126 17.9541 101.714 21.3314 101.714 25.39C101.714 29.7891 104.637 32.8259 109.15 32.8259ZM108.554 21.6436C109.774 21.6436 110.626 22.3248 110.881 23.3465L105.773 23.9425C106.113 22.2964 107.078 21.6436 108.554 21.6436Z" fill="#0F1559"/>
<path d="M120.67 31.35V25.8441C120.67 23.5452 121.862 22.3532 123.423 22.3532C123.906 22.3532 124.445 22.4099 125.239 22.5802C125.722 22.6937 125.977 22.5518 126.006 22.1261L126.29 18.8623C126.318 18.6636 126.261 18.4649 126.034 18.323C125.665 18.096 125.012 17.9541 124.388 17.9541C123.054 17.9541 121.607 18.8339 120.67 20.3665V18.0108C120.67 17.2445 120.301 16.8756 119.535 16.8756H117.832C117.066 16.8756 116.697 17.2445 116.697 18.0108V31.35C116.697 32.1163 117.066 32.4853 117.832 32.4853H119.535C120.301 32.4853 120.67 32.1163 120.67 31.35Z" fill="#0F1559"/>
<path d="M134.366 22.9492H128.122C127.356 22.9492 126.987 23.3181 126.987 24.0844V25.5035C126.987 26.2698 127.356 26.6387 128.122 26.6387H134.366C135.132 26.6387 135.501 26.2698 135.501 25.5035V24.0844C135.501 23.3181 135.132 22.9492 134.366 22.9492Z" fill="#0F1559"/>
<path d="M146.147 28.5687C142.656 28.5687 140.839 26.213 140.839 22.9776C140.839 19.7989 142.656 17.3865 146.147 17.3865C147.537 17.3865 149.354 17.9825 150.29 18.4082C150.943 18.692 151.284 18.5501 151.511 17.9825L152.362 15.8822C152.589 15.343 152.532 15.0592 152.192 14.8321C150.375 13.7253 148.133 13.1293 146.147 13.1293C140.442 13.1293 136.724 17.0459 136.724 22.9776C136.724 28.966 140.442 32.8259 146.09 32.8259C148.105 32.8259 150.347 32.2298 152.192 31.123C152.532 30.8959 152.589 30.6121 152.362 30.0729L151.511 27.9727C151.284 27.405 150.943 27.2631 150.29 27.5469C149.354 27.9727 147.537 28.5687 146.147 28.5687Z" fill="#0F1559"/>
<path d="M158.364 31.35V25.8441C158.364 23.233 159.584 22.0694 161.457 22.0694C162.82 22.0694 163.643 23.0627 163.643 25.1345V31.9177C163.643 32.6839 164.012 33.0529 164.778 33.0529H166.481C167.247 33.0529 167.616 32.6839 167.616 31.9177V23.8574C167.616 19.7421 165.573 17.9541 162.82 17.9541C161.23 17.9541 159.442 18.7488 158.364 20.4232V13.7537C158.364 12.9874 157.995 12.6184 157.229 12.6184H155.526C154.759 12.6184 154.39 12.9874 154.39 13.7537V31.35C154.39 32.1163 154.759 32.4853 155.526 32.4853H157.229C157.995 32.4853 158.364 32.1163 158.364 31.35Z" fill="#0F1559"/>
<path d="M181.206 33.3367C181.575 33.3367 181.83 33.2232 181.972 32.9678C182.029 32.8259 182.057 32.6839 182.057 32.4853V24.1696C182.057 20.1394 179.56 17.6703 175.586 17.6703C173.429 17.6703 171.358 18.323 170.024 19.3731C169.711 19.6002 169.655 19.8272 169.712 20.1111C169.768 20.253 169.825 20.3949 169.91 20.5652L170.336 21.3882L170.733 22.2113C171.017 22.7505 171.358 22.9776 171.783 22.7221C172.89 22.041 174.082 21.6436 175.132 21.6436C176.665 21.6436 177.687 22.3532 177.999 23.7155C178.027 23.8858 178.056 24.056 178.084 24.2547C177.005 23.8006 175.785 23.5168 174.707 23.5168C170.762 23.5168 169.201 25.6738 169.201 28.1429C169.201 30.8108 171.216 32.8259 174.139 32.8259C174.281 32.8259 174.451 32.8259 174.621 32.7975C175.87 32.6839 177.204 32.1163 178.084 31.2649V32.4853C178.084 33.0529 178.368 33.3367 178.935 33.3367H181.206ZM175.132 29.2782C174.082 29.2782 173.174 28.8241 173.174 28.0294C173.174 27.2064 173.827 26.7806 175.132 26.7806C176.041 26.7806 177.119 26.9793 178.084 27.3483V27.4618C178.084 27.6321 178.056 27.8024 177.97 27.9727C177.601 28.8241 176.296 29.2782 175.132 29.2782Z" fill="#0F1559"/>
<path d="M197.179 31.9177V26.1846C197.179 23.5452 197.974 22.3816 199.847 22.3816C201.209 22.3816 202.032 23.3749 202.032 25.4751V31.35C202.032 32.1163 202.401 32.4853 203.168 32.4853H204.871C205.637 32.4853 206.006 32.1163 206.006 31.35V24.198C206.006 20.0827 203.962 18.2947 201.209 18.2947C199.421 18.2947 197.718 19.1177 196.725 20.9057C195.959 18.8623 194.341 17.9541 192.383 17.9541C190.85 17.9541 189.318 18.7204 188.353 20.2813V18.2947C188.353 17.5284 187.984 17.1594 187.217 17.1594H185.515C184.748 17.1594 184.379 17.5284 184.379 18.2947V31.35C184.379 32.1163 184.748 32.4853 185.515 32.4853H187.217C187.984 32.4853 188.353 32.1163 188.353 31.35V25.8441C188.353 23.2046 189.147 22.041 191.02 22.041C192.383 22.041 193.206 23.0343 193.206 25.1345V31.9177C193.206 32.6839 193.575 33.0529 194.341 33.0529H196.044C196.81 33.0529 197.179 32.6839 197.179 31.9177Z" fill="#0F1559"/>
<path d="M212.327 37.3101V32.4853C213.264 32.7123 214.2 32.8259 215.165 32.8259C219.167 32.8259 222.289 30.0161 222.289 25.5603C222.289 21.1612 219.593 18.2947 216.3 18.2947C214.739 18.2947 213.32 18.8623 212.327 19.9124V18.8623C212.327 18.096 211.958 17.727 211.192 17.727H209.489C208.723 17.727 208.354 18.096 208.354 18.8623V37.3101C208.354 38.0764 208.723 38.4453 209.489 38.4453H211.192C211.958 38.4453 212.327 38.0764 212.327 37.3101ZM215.165 28.739C214.087 28.739 213.178 28.597 212.327 28.3132V26.1846C212.327 23.7722 213.491 22.4099 215.477 22.4099C217.209 22.4099 218.315 23.7155 218.315 25.5603C218.315 27.6888 216.982 28.739 215.165 28.739Z" fill="#0F1559"/>
<path d="M226.139 16.904C227.444 16.904 228.551 15.7971 228.551 14.4632C228.551 13.1576 227.444 12.0508 226.139 12.0508C224.833 12.0508 223.726 13.1576 223.726 14.4632C223.726 15.7971 224.833 16.904 226.139 16.904ZM228.125 31.35V19.9975C228.125 19.2312 227.756 18.8623 226.99 18.8623H225.287C224.521 18.8623 224.152 19.2312 224.152 19.9975V31.35C224.152 32.1163 224.521 32.4853 225.287 32.4853H226.99C227.756 32.4853 228.125 32.1163 228.125 31.35Z" fill="#0F1559"/>
<path d="M237.135 32.8259C241.563 32.8259 244.259 29.6472 244.259 25.39C244.259 21.1328 241.563 17.9541 237.135 17.9541C232.708 17.9541 230.012 21.1328 230.012 25.39C230.012 29.6472 232.708 32.8259 237.135 32.8259ZM237.135 28.7106C235.404 28.7106 233.985 27.8024 233.985 25.39C233.985 22.9776 235.404 22.0694 237.135 22.0694C238.867 22.0694 240.286 22.9776 240.286 25.39C240.286 27.8024 238.867 28.7106 237.135 28.7106Z" fill="#0F1559"/>
<path d="M250.104 31.9177V25.8441C250.104 23.233 251.324 22.0694 253.198 22.0694C254.56 22.0694 255.383 23.0627 255.383 25.1345V31.35C255.383 32.1163 255.752 32.4853 256.518 32.4853H258.221C258.987 32.4853 259.356 32.1163 259.356 31.35V23.8574C259.356 19.7421 257.313 17.9541 254.56 17.9541C252.971 17.9541 251.183 18.7488 250.104 20.4232V18.2947C250.104 17.5284 249.735 17.1594 248.969 17.1594H247.266C246.5 17.1594 246.131 17.5284 246.131 18.2947V31.9177C246.131 32.6839 246.5 33.0529 247.266 33.0529H248.969C249.735 33.0529 250.104 32.6839 250.104 31.9177Z" fill="#0F1559"/>
<path d="M261.31 22.5235C261.31 27.8308 268.235 26.2698 268.235 28.3132C268.235 28.8809 267.667 29.0795 266.731 29.0795C265.312 29.0795 263.807 28.5119 262.871 28.001C262.445 27.7456 261.991 28.0294 261.821 28.5119L261.253 30.1013C261.083 30.5554 260.912 30.9243 261.367 31.2933C262.7 32.3718 264.659 32.8259 266.504 32.8259C269.143 32.8259 272.066 31.5203 272.066 27.8308C272.066 22.6937 265.141 24.3682 265.141 22.3248C265.141 21.8139 265.51 21.5585 266.248 21.5585C267.412 21.5585 268.433 21.8991 269.796 22.4383C270.221 22.6086 270.647 22.4099 270.846 21.9275L271.442 20.4516C271.641 19.9975 271.782 19.6002 271.328 19.2596C270.108 18.3514 268.15 17.9541 266.645 17.9541C263.296 17.9541 261.31 19.9124 261.31 22.5235Z" fill="#0F1559"/>
</svg>
